<?xml version="1.0" encoding="utf-8" standalone="no"?>
<!DOCTYPE svg PUBLIC "-//W3C//DTD SVG 1.1//EN"
  "http://www.w3.org/Graphics/SVG/1.1/DTD/svg11.dtd">
<svg xmlns:xlink="http://www.w3.org/1999/xlink" width="504pt" height="576pt" viewBox="0 0 504 576" xmlns="http://www.w3.org/2000/svg" version="1.1">
 <metadata>
  <rdf:RDF xmlns:dc="http://purl.org/dc/elements/1.1/" xmlns:cc="http://creativecommons.org/ns#" xmlns:rdf="http://www.w3.org/1999/02/22-rdf-syntax-ns#">
   <cc:Work>
    <dc:type rdf:resource="http://purl.org/dc/dcmitype/StillImage"/>
    <dc:date>2023-08-10T05:30:04.897866</dc:date>
    <dc:format>image/svg+xml</dc:format>
    <dc:creator>
     <cc:Agent>
      <dc:title>Matplotlib v3.7.2, https://matplotlib.org/</dc:title>
     </cc:Agent>
    </dc:creator>
   </cc:Work>
  </rdf:RDF>
 </metadata>
 <defs>
  <style type="text/css">*{stroke-linejoin: round; stroke-linecap: butt}</style>
 </defs>
 <g id="figure_1">
  <g id="patch_1">
   <path d="M 0 576 
L 504 576 
L 504 0 
L 0 0 
z
" style="fill: #ffffff"/>
  </g>
  <g id="axes_1">
   <g id="patch_2">
    <path d="M 63 512.64 
L 453.6 512.64 
L 453.6 69.12 
L 63 69.12 
z
" style="fill: #ffffff"/>
   </g>
   <g id="matplotlib.axis_1">
    <g id="xtick_1">
     <g id="line2d_1">
      <defs>
       <path id="m71da104f6f" d="M 0 0 
L 0 3.5 
" style="stroke: #000000; stroke-width: 0.8"/>
      </defs>
      <g>
       <use xlink:href="#m71da104f6f" x="63" y="512.64" style="stroke: #000000; stroke-width: 0.8"/>
      </g>
     </g>
     <g id="text_1">
      <!-- 0.0 -->
      <g transform="translate(55.048437 527.238438) scale(0.1 -0.1)">
       <defs>
        <path id="DejaVuSans-30" d="M 2034 4250 
Q 1547 4250 1301 3770 
Q 1056 3291 1056 2328 
Q 1056 1369 1301 889 
Q 1547 409 2034 409 
Q 2525 409 2770 889 
Q 3016 1369 3016 2328 
Q 3016 3291 2770 3770 
Q 2525 4250 2034 4250 
z
M 2034 4750 
Q 2819 4750 3233 4129 
Q 3647 3509 3647 2328 
Q 3647 1150 3233 529 
Q 2819 -91 2034 -91 
Q 1250 -91 836 529 
Q 422 1150 422 2328 
Q 422 3509 836 4129 
Q 1250 4750 2034 4750 
z
" transform="scale(0.015625)"/>
        <path id="DejaVuSans-2e" d="M 684 794 
L 1344 794 
L 1344 0 
L 684 0 
L 684 794 
z
" transform="scale(0.015625)"/>
       </defs>
       <use xlink:href="#DejaVuSans-30"/>
       <use xlink:href="#DejaVuSans-2e" x="63.623047"/>
       <use xlink:href="#DejaVuSans-30" x="95.410156"/>
      </g>
     </g>
    </g>
    <g id="xtick_2">
     <g id="line2d_2">
      <g>
       <use xlink:href="#m71da104f6f" x="141.12" y="512.64" style="stroke: #000000; stroke-width: 0.8"/>
      </g>
     </g>
     <g id="text_2">
      <!-- 0.2 -->
      <g transform="translate(133.168438 527.238438) scale(0.1 -0.1)">
       <defs>
        <path id="DejaVuSans-32" d="M 1228 531 
L 3431 531 
L 3431 0 
L 469 0 
L 469 531 
Q 828 903 1448 1529 
Q 2069 2156 2228 2338 
Q 2531 2678 2651 2914 
Q 2772 3150 2772 3378 
Q 2772 3750 2511 3984 
Q 2250 4219 1831 4219 
Q 1534 4219 1204 4116 
Q 875 4013 500 3803 
L 500 4441 
Q 881 4594 1212 4672 
Q 1544 4750 1819 4750 
Q 2544 4750 2975 4387 
Q 3406 4025 3406 3419 
Q 3406 3131 3298 2873 
Q 3191 2616 2906 2266 
Q 2828 2175 2409 1742 
Q 1991 1309 1228 531 
z
" transform="scale(0.015625)"/>
       </defs>
       <use xlink:href="#DejaVuSans-30"/>
       <use xlink:href="#DejaVuSans-2e" x="63.623047"/>
       <use xlink:href="#DejaVuSans-32" x="95.410156"/>
      </g>
     </g>
    </g>
    <g id="xtick_3">
     <g id="line2d_3">
      <g>
       <use xlink:href="#m71da104f6f" x="219.24" y="512.64" style="stroke: #000000; stroke-width: 0.8"/>
      </g>
     </g>
     <g id="text_3">
      <!-- 0.4 -->
      <g transform="translate(211.288438 527.238438) scale(0.1 -0.1)">
       <defs>
        <path id="DejaVuSans-34" d="M 2419 4116 
L 825 1625 
L 2419 1625 
L 2419 4116 
z
M 2253 4666 
L 3047 4666 
L 3047 1625 
L 3713 1625 
L 3713 1100 
L 3047 1100 
L 3047 0 
L 2419 0 
L 2419 1100 
L 313 1100 
L 313 1709 
L 2253 4666 
z
" transform="scale(0.015625)"/>
       </defs>
       <use xlink:href="#DejaVuSans-30"/>
       <use xlink:href="#DejaVuSans-2e" x="63.623047"/>
       <use xlink:href="#DejaVuSans-34" x="95.410156"/>
      </g>
     </g>
    </g>
    <g id="xtick_4">
     <g id="line2d_4">
      <g>
       <use xlink:href="#m71da104f6f" x="297.36" y="512.64" style="stroke: #000000; stroke-width: 0.8"/>
      </g>
     </g>
     <g id="text_4">
      <!-- 0.6 -->
      <g transform="translate(289.408437 527.238438) scale(0.1 -0.1)">
       <defs>
        <path id="DejaVuSans-36" d="M 2113 2584 
Q 1688 2584 1439 2293 
Q 1191 2003 1191 1497 
Q 1191 994 1439 701 
Q 1688 409 2113 409 
Q 2538 409 2786 701 
Q 3034 994 3034 1497 
Q 3034 2003 2786 2293 
Q 2538 2584 2113 2584 
z
M 3366 4563 
L 3366 3988 
Q 3128 4100 2886 4159 
Q 2644 4219 2406 4219 
Q 1781 4219 1451 3797 
Q 1122 3375 1075 2522 
Q 1259 2794 1537 2939 
Q 1816 3084 2150 3084 
Q 2853 3084 3261 2657 
Q 3669 2231 3669 1497 
Q 3669 778 3244 343 
Q 2819 -91 2113 -91 
Q 1303 -91 875 529 
Q 447 1150 447 2328 
Q 447 3434 972 4092 
Q 1497 4750 2381 4750 
Q 2619 4750 2861 4703 
Q 3103 4656 3366 4563 
z
" transform="scale(0.015625)"/>
       </defs>
       <use xlink:href="#DejaVuSans-30"/>
       <use xlink:href="#DejaVuSans-2e" x="63.623047"/>
       <use xlink:href="#DejaVuSans-36" x="95.410156"/>
      </g>
     </g>
    </g>
    <g id="xtick_5">
     <g id="line2d_5">
      <g>
       <use xlink:href="#m71da104f6f" x="375.48" y="512.64" style="stroke: #000000; stroke-width: 0.8"/>
      </g>
     </g>
     <g id="text_5">
      <!-- 0.8 -->
      <g transform="translate(367.528437 527.238438) scale(0.1 -0.1)">
       <defs>
        <path id="DejaVuSans-38" d="M 2034 2216 
Q 1584 2216 1326 1975 
Q 1069 1734 1069 1313 
Q 1069 891 1326 650 
Q 1584 409 2034 409 
Q 2484 409 2743 651 
Q 3003 894 3003 1313 
Q 3003 1734 2745 1975 
Q 2488 2216 2034 2216 
z
M 1403 2484 
Q 997 2584 770 2862 
Q 544 3141 544 3541 
Q 544 4100 942 4425 
Q 1341 4750 2034 4750 
Q 2731 4750 3128 4425 
Q 3525 4100 3525 3541 
Q 3525 3141 3298 2862 
Q 3072 2584 2669 2484 
Q 3125 2378 3379 2068 
Q 3634 1759 3634 1313 
Q 3634 634 3220 271 
Q 2806 -91 2034 -91 
Q 1263 -91 848 271 
Q 434 634 434 1313 
Q 434 1759 690 2068 
Q 947 2378 1403 2484 
z
M 1172 3481 
Q 1172 3119 1398 2916 
Q 1625 2713 2034 2713 
Q 2441 2713 2670 2916 
Q 2900 3119 2900 3481 
Q 2900 3844 2670 4047 
Q 2441 4250 2034 4250 
Q 1625 4250 1398 4047 
Q 1172 3844 1172 3481 
z
" transform="scale(0.015625)"/>
       </defs>
       <use xlink:href="#DejaVuSans-30"/>
       <use xlink:href="#DejaVuSans-2e" x="63.623047"/>
       <use xlink:href="#DejaVuSans-38" x="95.410156"/>
      </g>
     </g>
    </g>
    <g id="xtick_6">
     <g id="line2d_6">
      <g>
       <use xlink:href="#m71da104f6f" x="453.6" y="512.64" style="stroke: #000000; stroke-width: 0.8"/>
      </g>
     </g>
     <g id="text_6">
      <!-- 1.0 -->
      <g transform="translate(445.648438 527.238438) scale(0.1 -0.1)">
       <defs>
        <path id="DejaVuSans-31" d="M 794 531 
L 1825 531 
L 1825 4091 
L 703 3866 
L 703 4441 
L 1819 4666 
L 2450 4666 
L 2450 531 
L 3481 531 
L 3481 0 
L 794 0 
L 794 531 
z
" transform="scale(0.015625)"/>
       </defs>
       <use xlink:href="#DejaVuSans-31"/>
       <use xlink:href="#DejaVuSans-2e" x="63.623047"/>
       <use xlink:href="#DejaVuSans-30" x="95.410156"/>
      </g>
     </g>
    </g>
    <g id="text_7">
     <!-- Recall -->
     <g transform="translate(243.382812 540.916563) scale(0.1 -0.1)">
      <defs>
       <path id="DejaVuSans-52" d="M 2841 2188 
Q 3044 2119 3236 1894 
Q 3428 1669 3622 1275 
L 4263 0 
L 3584 0 
L 2988 1197 
Q 2756 1666 2539 1819 
Q 2322 1972 1947 1972 
L 1259 1972 
L 1259 0 
L 628 0 
L 628 4666 
L 2053 4666 
Q 2853 4666 3247 4331 
Q 3641 3997 3641 3322 
Q 3641 2881 3436 2590 
Q 3231 2300 2841 2188 
z
M 1259 4147 
L 1259 2491 
L 2053 2491 
Q 2509 2491 2742 2702 
Q 2975 2913 2975 3322 
Q 2975 3731 2742 3939 
Q 2509 4147 2053 4147 
L 1259 4147 
z
" transform="scale(0.015625)"/>
       <path id="DejaVuSans-65" d="M 3597 1894 
L 3597 1613 
L 953 1613 
Q 991 1019 1311 708 
Q 1631 397 2203 397 
Q 2534 397 2845 478 
Q 3156 559 3463 722 
L 3463 178 
Q 3153 47 2828 -22 
Q 2503 -91 2169 -91 
Q 1331 -91 842 396 
Q 353 884 353 1716 
Q 353 2575 817 3079 
Q 1281 3584 2069 3584 
Q 2775 3584 3186 3129 
Q 3597 2675 3597 1894 
z
M 3022 2063 
Q 3016 2534 2758 2815 
Q 2500 3097 2075 3097 
Q 1594 3097 1305 2825 
Q 1016 2553 972 2059 
L 3022 2063 
z
" transform="scale(0.015625)"/>
       <path id="DejaVuSans-63" d="M 3122 3366 
L 3122 2828 
Q 2878 2963 2633 3030 
Q 2388 3097 2138 3097 
Q 1578 3097 1268 2742 
Q 959 2388 959 1747 
Q 959 1106 1268 751 
Q 1578 397 2138 397 
Q 2388 397 2633 464 
Q 2878 531 3122 666 
L 3122 134 
Q 2881 22 2623 -34 
Q 2366 -91 2075 -91 
Q 1284 -91 818 406 
Q 353 903 353 1747 
Q 353 2603 823 3093 
Q 1294 3584 2113 3584 
Q 2378 3584 2631 3529 
Q 2884 3475 3122 3366 
z
" transform="scale(0.015625)"/>
       <path id="DejaVuSans-61" d="M 2194 1759 
Q 1497 1759 1228 1600 
Q 959 1441 959 1056 
Q 959 750 1161 570 
Q 1363 391 1709 391 
Q 2188 391 2477 730 
Q 2766 1069 2766 1631 
L 2766 1759 
L 2194 1759 
z
M 3341 1997 
L 3341 0 
L 2766 0 
L 2766 531 
Q 2569 213 2275 61 
Q 1981 -91 1556 -91 
Q 1019 -91 701 211 
Q 384 513 384 1019 
Q 384 1609 779 1909 
Q 1175 2209 1959 2209 
L 2766 2209 
L 2766 2266 
Q 2766 2663 2505 2880 
Q 2244 3097 1772 3097 
Q 1472 3097 1187 3025 
Q 903 2953 641 2809 
L 641 3341 
Q 956 3463 1253 3523 
Q 1550 3584 1831 3584 
Q 2591 3584 2966 3190 
Q 3341 2797 3341 1997 
z
" transform="scale(0.015625)"/>
       <path id="DejaVuSans-6c" d="M 603 4863 
L 1178 4863 
L 1178 0 
L 603 0 
L 603 4863 
z
" transform="scale(0.015625)"/>
      </defs>
      <use xlink:href="#DejaVuSans-52"/>
      <use xlink:href="#DejaVuSans-65" x="64.982422"/>
      <use xlink:href="#DejaVuSans-63" x="126.505859"/>
      <use xlink:href="#DejaVuSans-61" x="181.486328"/>
      <use xlink:href="#DejaVuSans-6c" x="242.765625"/>
      <use xlink:href="#DejaVuSans-6c" x="270.548828"/>
     </g>
    </g>
   </g>
   <g id="matplotlib.axis_2">
    <g id="ytick_1">
     <g id="line2d_7">
      <defs>
       <path id="ma07b4c7dca" d="M 0 0 
L -3.5 0 
" style="stroke: #000000; stroke-width: 0.8"/>
      </defs>
      <g>
       <use xlink:href="#ma07b4c7dca" x="63" y="512.64" style="stroke: #000000; stroke-width: 0.8"/>
      </g>
     </g>
     <g id="text_8">
      <!-- 0.0 -->
      <g transform="translate(40.096875 516.439219) scale(0.1 -0.1)">
       <use xlink:href="#DejaVuSans-30"/>
       <use xlink:href="#DejaVuSans-2e" x="63.623047"/>
       <use xlink:href="#DejaVuSans-30" x="95.410156"/>
      </g>
     </g>
    </g>
    <g id="ytick_2">
     <g id="line2d_8">
      <g>
       <use xlink:href="#ma07b4c7dca" x="63" y="428.16" style="stroke: #000000; stroke-width: 0.8"/>
      </g>
     </g>
     <g id="text_9">
      <!-- 0.2 -->
      <g transform="translate(40.096875 431.959219) scale(0.1 -0.1)">
       <use xlink:href="#DejaVuSans-30"/>
       <use xlink:href="#DejaVuSans-2e" x="63.623047"/>
       <use xlink:href="#DejaVuSans-32" x="95.410156"/>
      </g>
     </g>
    </g>
    <g id="ytick_3">
     <g id="line2d_9">
      <g>
       <use xlink:href="#ma07b4c7dca" x="63" y="343.68" style="stroke: #000000; stroke-width: 0.8"/>
      </g>
     </g>
     <g id="text_10">
      <!-- 0.4 -->
      <g transform="translate(40.096875 347.479219) scale(0.1 -0.1)">
       <use xlink:href="#DejaVuSans-30"/>
       <use xlink:href="#DejaVuSans-2e" x="63.623047"/>
       <use xlink:href="#DejaVuSans-34" x="95.410156"/>
      </g>
     </g>
    </g>
    <g id="ytick_4">
     <g id="line2d_10">
      <g>
       <use xlink:href="#ma07b4c7dca" x="63" y="259.2" style="stroke: #000000; stroke-width: 0.8"/>
      </g>
     </g>
     <g id="text_11">
      <!-- 0.6 -->
      <g transform="translate(40.096875 262.999219) scale(0.1 -0.1)">
       <use xlink:href="#DejaVuSans-30"/>
       <use xlink:href="#DejaVuSans-2e" x="63.623047"/>
       <use xlink:href="#DejaVuSans-36" x="95.410156"/>
      </g>
     </g>
    </g>
    <g id="ytick_5">
     <g id="line2d_11">
      <g>
       <use xlink:href="#ma07b4c7dca" x="63" y="174.72" style="stroke: #000000; stroke-width: 0.8"/>
      </g>
     </g>
     <g id="text_12">
      <!-- 0.8 -->
      <g transform="translate(40.096875 178.519219) scale(0.1 -0.1)">
       <use xlink:href="#DejaVuSans-30"/>
       <use xlink:href="#DejaVuSans-2e" x="63.623047"/>
       <use xlink:href="#DejaVuSans-38" x="95.410156"/>
      </g>
     </g>
    </g>
    <g id="ytick_6">
     <g id="line2d_12">
      <g>
       <use xlink:href="#ma07b4c7dca" x="63" y="90.24" style="stroke: #000000; stroke-width: 0.8"/>
      </g>
     </g>
     <g id="text_13">
      <!-- 1.0 -->
      <g transform="translate(40.096875 94.039219) scale(0.1 -0.1)">
       <use xlink:href="#DejaVuSans-31"/>
       <use xlink:href="#DejaVuSans-2e" x="63.623047"/>
       <use xlink:href="#DejaVuSans-30" x="95.410156"/>
      </g>
     </g>
    </g>
    <g id="text_14">
     <!-- Precision -->
     <g transform="translate(34.017187 313.187031) rotate(-90) scale(0.1 -0.1)">
      <defs>
       <path id="DejaVuSans-50" d="M 1259 4147 
L 1259 2394 
L 2053 2394 
Q 2494 2394 2734 2622 
Q 2975 2850 2975 3272 
Q 2975 3691 2734 3919 
Q 2494 4147 2053 4147 
L 1259 4147 
z
M 628 4666 
L 2053 4666 
Q 2838 4666 3239 4311 
Q 3641 3956 3641 3272 
Q 3641 2581 3239 2228 
Q 2838 1875 2053 1875 
L 1259 1875 
L 1259 0 
L 628 0 
L 628 4666 
z
" transform="scale(0.015625)"/>
       <path id="DejaVuSans-72" d="M 2631 2963 
Q 2534 3019 2420 3045 
Q 2306 3072 2169 3072 
Q 1681 3072 1420 2755 
Q 1159 2438 1159 1844 
L 1159 0 
L 581 0 
L 581 3500 
L 1159 3500 
L 1159 2956 
Q 1341 3275 1631 3429 
Q 1922 3584 2338 3584 
Q 2397 3584 2469 3576 
Q 2541 3569 2628 3553 
L 2631 2963 
z
" transform="scale(0.015625)"/>
       <path id="DejaVuSans-69" d="M 603 3500 
L 1178 3500 
L 1178 0 
L 603 0 
L 603 3500 
z
M 603 4863 
L 1178 4863 
L 1178 4134 
L 603 4134 
L 603 4863 
z
" transform="scale(0.015625)"/>
       <path id="DejaVuSans-73" d="M 2834 3397 
L 2834 2853 
Q 2591 2978 2328 3040 
Q 2066 3103 1784 3103 
Q 1356 3103 1142 2972 
Q 928 2841 928 2578 
Q 928 2378 1081 2264 
Q 1234 2150 1697 2047 
L 1894 2003 
Q 2506 1872 2764 1633 
Q 3022 1394 3022 966 
Q 3022 478 2636 193 
Q 2250 -91 1575 -91 
Q 1294 -91 989 -36 
Q 684 19 347 128 
L 347 722 
Q 666 556 975 473 
Q 1284 391 1588 391 
Q 1994 391 2212 530 
Q 2431 669 2431 922 
Q 2431 1156 2273 1281 
Q 2116 1406 1581 1522 
L 1381 1569 
Q 847 1681 609 1914 
Q 372 2147 372 2553 
Q 372 3047 722 3315 
Q 1072 3584 1716 3584 
Q 2034 3584 2315 3537 
Q 2597 3491 2834 3397 
z
" transform="scale(0.015625)"/>
       <path id="DejaVuSans-6f" d="M 1959 3097 
Q 1497 3097 1228 2736 
Q 959 2375 959 1747 
Q 959 1119 1226 758 
Q 1494 397 1959 397 
Q 2419 397 2687 759 
Q 2956 1122 2956 1747 
Q 2956 2369 2687 2733 
Q 2419 3097 1959 3097 
z
M 1959 3584 
Q 2709 3584 3137 3096 
Q 3566 2609 3566 1747 
Q 3566 888 3137 398 
Q 2709 -91 1959 -91 
Q 1206 -91 779 398 
Q 353 888 353 1747 
Q 353 2609 779 3096 
Q 1206 3584 1959 3584 
z
" transform="scale(0.015625)"/>
       <path id="DejaVuSans-6e" d="M 3513 2113 
L 3513 0 
L 2938 0 
L 2938 2094 
Q 2938 2591 2744 2837 
Q 2550 3084 2163 3084 
Q 1697 3084 1428 2787 
Q 1159 2491 1159 1978 
L 1159 0 
L 581 0 
L 581 3500 
L 1159 3500 
L 1159 2956 
Q 1366 3272 1645 3428 
Q 1925 3584 2291 3584 
Q 2894 3584 3203 3211 
Q 3513 2838 3513 2113 
z
" transform="scale(0.015625)"/>
      </defs>
      <use xlink:href="#DejaVuSans-50"/>
      <use xlink:href="#DejaVuSans-72" x="58.552734"/>
      <use xlink:href="#DejaVuSans-65" x="97.416016"/>
      <use xlink:href="#DejaVuSans-63" x="158.939453"/>
      <use xlink:href="#DejaVuSans-69" x="213.919922"/>
      <use xlink:href="#DejaVuSans-73" x="241.703125"/>
      <use xlink:href="#DejaVuSans-69" x="293.802734"/>
      <use xlink:href="#DejaVuSans-6f" x="321.585938"/>
      <use xlink:href="#DejaVuSans-6e" x="382.767578"/>
     </g>
    </g>
   </g>
   <g id="line2d_13">
    <path d="M 106.364571 87.111111 
L 114.256286 335.121569 
L 122.148 388.266667 
L 130.039714 411.432479 
L 137.931429 424.405333 
L 145.823143 432.699454 
L 153.714857 438.459259 
L 161.606571 442.692369 
L 169.498286 445.934752 
L 177.39 448.497778 
L 185.281714 450.574713 
L 193.173429 452.291864 
L 201.065143 453.735266 
L 208.956857 454.965548 
L 216.848571 456.026667 
L 224.740286 456.951267 
L 232.632 457.764103 
L 240.523714 458.484283 
L 248.415429 459.126797 
L 256.307143 459.703566 
L 264.198857 460.224189 
L 272.090571 460.696484 
L 279.982286 461.126882 
L 287.874 461.520721 
L 295.765714 461.882469 
L 303.657429 462.215896 
L 311.549143 462.524201 
L 319.440857 462.810121 
L 327.332571 463.076008 
L 335.224286 463.323897 
L 343.116 463.555556 
L 351.007714 463.772526 
L 358.899429 463.976164 
L 366.791143 464.16766 
L 374.682857 464.34807 
L 382.574571 464.518329 
L 390.466286 464.67927 
L 398.358 464.831638 
L 406.249714 464.976101 
L 414.141429 465.113257 
L 422.033143 465.243647 
L 429.924857 465.367761 
L 437.816571 465.48604 
L 445.708286 465.598887 
L 453.6 465.706667 
" clip-path="url(#p5dad9ad07e)" style="fill: none; stroke: #808080; stroke-opacity: 0.2; stroke-width: 1.5; stroke-linecap: square"/>
   </g>
   <g id="line2d_14">
    <path d="M 157.422446 -1 
L 161.606571 106.018366 
L 169.498286 195.602697 
L 177.39 246.203077 
L 185.281714 278.718845 
L 193.173429 301.375314 
L 201.065143 318.066383 
L 208.956857 330.873984 
L 216.848571 341.012211 
L 224.740286 349.236835 
L 232.632 356.042927 
L 240.523714 361.76834 
L 248.415429 366.65153 
L 256.307143 370.865606 
L 264.198857 374.539275 
L 272.090571 377.770225 
L 279.982286 380.633938 
L 287.874 383.189658 
L 295.765714 385.484536 
L 303.657429 387.556567 
L 311.549143 389.436707 
L 319.440857 391.150434 
L 327.332571 392.718904 
L 335.224286 394.159836 
L 343.116 395.488177 
L 351.007714 396.716627 
L 358.899429 397.856047 
L 366.791143 398.915775 
L 374.682857 399.903891 
L 382.574571 400.827415 
L 390.466286 401.692481 
L 398.358 402.504469 
L 406.249714 403.268118 
L 414.141429 403.98762 
L 422.033143 404.666697 
L 429.924857 405.308661 
L 437.816571 405.916475 
L 445.708286 406.492792 
L 453.6 407.04 
" clip-path="url(#p5dad9ad07e)" style="fill: none; stroke: #808080; stroke-opacity: 0.2; stroke-width: 1.5; stroke-linecap: square"/>
   </g>
   <g id="line2d_15">
    <path d="M 218.832894 -1 
L 224.740286 52.684937 
L 232.632 102.822128 
L 240.523714 139.845495 
L 248.415429 168.305047 
L 256.307143 190.864084 
L 264.198857 209.185275 
L 272.090571 224.360243 
L 279.982286 237.135335 
L 287.874 248.038135 
L 295.765714 257.452138 
L 303.657429 265.662802 
L 311.549143 272.88699 
L 319.440857 279.29241 
L 327.332571 285.010791 
L 335.224286 290.147044 
L 343.116 294.785753 
L 351.007714 298.995875 
L 358.899429 302.834184 
L 366.791143 306.347851 
L 374.682857 309.576393 
L 382.574571 312.553163 
L 390.466286 315.306505 
L 398.358 317.860665 
L 406.249714 320.236502 
L 414.141429 322.452061 
L 422.033143 324.523032 
L 429.924857 326.463122 
L 437.816571 328.284356 
L 445.708286 329.997334 
L 453.6 331.611429 
" clip-path="url(#p5dad9ad07e)" style="fill: none; stroke: #808080; stroke-opacity: 0.2; stroke-width: 1.5; stroke-linecap: square"/>
   </g>
   <g id="line2d_16">
    <path d="M 295.834235 -1 
L 303.657429 30.968385 
L 311.549143 57.702798 
L 319.440857 80.226062 
L 327.332571 99.460531 
L 335.224286 116.077526 
L 343.116 130.577297 
L 351.007714 143.340254 
L 358.899429 154.660822 
L 366.791143 164.770438 
L 374.682857 173.853538 
L 382.574571 182.058917 
L 390.466286 189.507933 
L 398.358 196.300561 
L 406.249714 202.519898 
L 414.141429 208.235583 
L 422.033143 213.506415 
L 429.924857 218.382384 
L 437.816571 222.906258 
L 445.708286 227.114847 
L 453.6 231.04 
" clip-path="url(#p5dad9ad07e)" style="fill: none; stroke: #808080; stroke-opacity: 0.2; stroke-width: 1.5; stroke-linecap: square"/>
   </g>
   <g id="line2d_17">
    <path d="M 453.6 301.44 
L 453.6 292.538851 
L 453.025588 292.538851 
L 453.025588 292.693988 
L 453.025588 278.891345 
L 452.451176 278.891345 
L 452.451176 279.04522 
L 452.451176 264.900208 
L 451.876765 264.900208 
L 451.876765 265.051429 
L 451.876765 251.723212 
L 451.302353 251.723212 
L 451.302353 251.870685 
L 451.302353 227.0976 
L 450.727941 227.0976 
L 450.727941 227.234595 
L 450.727941 218.094545 
L 450.153529 218.094545 
L 450.153529 218.226763 
L 450.153529 215.460877 
L 449.579118 215.460877 
L 449.579118 215.591724 
L 449.579118 211.819683 
L 449.004706 211.819683 
L 449.004706 211.948475 
L 449.004706 209.702113 
L 448.430294 209.702113 
L 448.430294 209.829744 
L 448.430294 205.897143 
L 447.855882 205.897143 
L 447.855882 206.022449 
L 447.855882 194.653483 
L 447.281471 194.653483 
L 447.281471 194.770934 
L 447.281471 185.951445 
L 446.707059 185.951445 
L 446.707059 186.062222 
L 446.707059 185.683801 
L 446.132647 185.683801 
L 446.132647 185.794524 
L 446.132647 185.034419 
L 445.558235 185.034419 
L 445.558235 185.144773 
L 445.558235 182.066087 
L 444.983824 182.066087 
L 444.983824 182.174118 
L 444.983824 172.16 
L 444.409412 172.16 
L 444.409412 172.259417 
L 444.409412 167.654022 
L 443.835 167.654022 
L 443.835 167.74936 
L 443.835 163.883836 
L 443.260588 163.883836 
L 443.260588 163.975661 
L 443.260588 163.104 
L 442.111765 163.195194 
L 442.111765 163.286617 
L 442.111765 161.968302 
L 441.537353 161.968302 
L 441.537353 162.05864 
L 441.537353 159.389239 
L 440.962941 159.389239 
L 440.962941 159.477103 
L 440.962941 156.307692 
L 439.814118 156.392503 
L 439.814118 156.477532 
L 439.814118 152.309181 
L 439.239706 152.309181 
L 439.239706 152.39 
L 439.239706 149.076268 
L 438.665294 149.076268 
L 438.665294 149.153684 
L 438.665294 147.230476 
L 437.516471 147.230476 
L 437.516471 147.381645 
L 435.793235 147.45753 
L 435.793235 147.609907 
L 435.793235 147.1232 
L 435.218824 147.1232 
L 435.218824 147.199146 
L 435.218824 145.729544 
L 434.644412 145.729544 
L 434.644412 145.804027 
L 434.644412 145.310968 
L 434.07 145.310968 
L 434.07 145.385087 
L 434.07 143.39724 
L 433.495588 143.39724 
L 433.495588 143.469268 
L 433.495588 139.934118 
L 432.921176 139.934118 
L 432.921176 140.002192 
L 432.921176 139.491029 
L 432.346765 139.491029 
L 432.346765 139.558681 
L 432.346765 138.530909 
L 431.772353 138.530909 
L 431.772353 138.597517 
L 431.772353 137.043324 
L 431.197941 137.043324 
L 431.197941 137.108239 
L 431.197941 135.013222 
L 430.623529 135.013222 
L 430.623529 135.075754 
L 430.623529 132.420591 
L 430.049118 132.420591 
L 430.049118 132.48 
L 430.049118 131.406102 
L 428.900294 131.464328 
L 428.900294 131.52272 
L 428.900294 126.046897 
L 428.325882 126.046897 
L 428.325882 126.098417 
L 428.325882 124.422659 
L 426.602647 124.521739 
L 426.602647 122.874402 
L 424.879412 122.922044 
L 424.879412 123.017745 
L 424.305 123.017745 
L 424.305 123.065806 
L 424.305 122.493744 
L 423.730588 122.493744 
L 423.730588 122.541176 
L 423.730588 121.966657 
L 423.156176 121.966657 
L 423.156176 122.013451 
L 423.156176 119.695193 
L 421.432941 119.695193 
L 421.432941 118.062754 
L 419.709706 118.146306 
L 419.709706 118.188271 
L 419.709706 117.594217 
L 417.412059 117.676858 
L 417.412059 117.76 
L 414.54 117.843647 
L 414.54 117.970076 
L 413.965588 117.970076 
L 413.965588 118.012477 
L 413.965588 116.801963 
L 412.816765 116.842765 
L 412.816765 116.883692 
L 412.816765 116.273898 
L 409.944706 116.273898 
L 409.944706 116.476025 
L 409.944706 115.859907 
L 407.647059 115.939844 
L 407.647059 116.020282 
L 407.647059 115.398621 
L 405.923824 115.477736 
L 405.923824 115.51748 
L 405.923824 114.891104 
L 404.775 114.930047 
L 404.775 114.969114 
L 404.775 114.338891 
L 404.200588 114.338891 
L 404.200588 114.377143 
L 404.200588 113.743975 
L 402.477353 113.818947 
L 402.477353 113.856613 
L 400.754118 113.8944 
L 400.754118 113.970337 
L 400.179706 113.970337 
L 400.179706 114.008489 
L 400.179706 113.36657 
L 398.456471 113.403871 
L 398.456471 113.478835 
L 397.882059 113.478835 
L 397.882059 113.516499 
L 397.882059 112.868571 
L 397.307647 112.868571 
L 397.307647 112.905366 
L 397.307647 112.254332 
L 395.584412 112.290245 
L 395.584412 112.362422 
L 395.584412 111.70623 
L 395.01 111.70623 
L 395.01 111.741478 
L 395.01 108.422781 
L 392.712353 108.513544 
L 392.712353 108.544 
L 392.712353 107.869382 
L 389.265882 107.958121 
L 389.265882 108.047757 
L 388.691471 108.047757 
L 388.691471 108.077838 
L 388.691471 107.393299 
L 384.670588 107.422373 
L 384.670588 107.598904 
L 383.521765 107.628679 
L 383.521765 107.658557 
L 383.521765 106.262069 
L 381.224118 106.345373 
L 381.224118 106.373333 
L 379.500882 106.429547 
L 379.500882 106.457801 
L 379.500882 105.747692 
L 376.054412 105.856901 
L 376.054412 105.912085 
L 376.054412 105.192212 
L 374.331176 105.245329 
L 374.331176 105.272028 
L 374.331176 103.817143 
L 373.182353 103.841431 
L 373.182353 103.865806 
L 373.182353 103.131921 
L 370.310294 103.225172 
L 370.310294 103.248696 
L 368.012647 103.319781 
L 368.012647 103.34365 
L 368.012647 102.595393 
L 365.140588 102.686409 
L 365.140588 102.709373 
L 361.694118 102.802082 
L 361.694118 102.848955 
L 361.694118 102.082991 
L 358.822059 102.172203 
L 358.822059 102.194717 
L 355.95 102.285627 
L 355.95 102.308571 
L 353.077941 102.401228 
L 353.077941 102.424615 
L 350.205882 102.51907 
L 350.205882 102.542913 
L 347.333824 102.639217 
L 347.333824 102.663529 
L 347.333824 101.858075 
L 344.461765 101.950099 
L 344.461765 101.973333 
L 342.738529 102.02008 
L 342.738529 102.043593 
L 342.738529 101.2224 
L 341.589706 101.244409 
L 341.589706 101.266506 
L 341.589706 100.438793 
L 341.015294 100.438793 
L 341.015294 100.459355 
L 341.015294 99.626667 
L 337.568824 99.722449 
L 337.568824 99.74184 
L 334.122353 99.84 
L 334.122353 99.859876 
L 330.675882 99.960502 
L 330.675882 99.980881 
L 327.229412 100.084068 
L 327.229412 100.104968 
L 327.229412 99.227234 
L 323.782941 99.323871 
L 323.782941 99.343448 
L 320.336471 99.442614 
L 320.336471 99.462707 
L 316.89 99.564503 
L 316.89 99.585133 
L 313.443529 99.689664 
L 313.443529 99.710852 
L 309.997059 99.818231 
L 309.997059 99.84 
L 308.273824 99.861868 
L 308.273824 99.905904 
L 308.273824 98.959266 
L 304.252941 99.060418 
L 304.252941 99.101538 
L 301.380882 99.184941 
L 301.380882 99.206038 
L 301.380882 98.228652 
L 297.934412 98.324211 
L 297.934412 98.343597 
L 297.36 98.343597 
L 297.36 98.363077 
L 297.36 97.364819 
L 293.339118 97.46934 
L 293.339118 97.487059 
L 290.467059 97.558812 
L 290.467059 97.576973 
L 290.467059 96.544478 
L 286.446176 96.64 
L 286.446176 96.656203 
L 285.297353 96.672487 
L 285.297353 96.688855 
L 285.297353 95.627755 
L 280.702059 95.711503 
L 280.702059 95.74 
L 276.106765 95.842122 
L 276.106765 95.857021 
L 271.511471 95.963577 
L 271.511471 95.97913 
L 267.490588 96.074254 
L 267.490588 96.090416 
L 267.490588 94.933333 
L 262.320882 95.026402 
L 262.320882 95.053675 
L 257.725588 95.151628 
L 257.725588 95.165948 
L 253.130294 95.268571 
L 253.130294 95.283582 
L 248.535 95.39122 
L 248.535 95.406972 
L 244.514118 95.503551 
L 244.514118 95.52 
L 239.344412 95.60381 
L 239.344412 95.672797 
L 235.323529 95.779672 
L 235.323529 95.797895 
L 231.302647 95.890836 
L 231.302647 95.928889 
L 227.856176 96.026301 
L 227.856176 96.046186 
L 224.409706 96.147692 
L 224.409706 96.168421 
L 220.963235 96.274286 
L 220.963235 96.295914 
L 217.516765 96.406423 
L 217.516765 96.429011 
L 214.070294 96.521041 
L 214.070294 96.56809 
L 212.921471 96.59188 
L 212.921471 96.615849 
L 212.921471 95.04 
L 209.475 95.132664 
L 209.475 95.151628 
L 206.028529 95.248696 
L 206.028529 95.268571 
L 202.582059 95.370364 
L 202.582059 95.39122 
L 199.135588 95.498091 
L 199.135588 95.52 
L 196.263529 95.609492 
L 196.263529 95.63234 
L 193.391471 95.702069 
L 193.391471 95.749565 
L 190.519412 95.84708 
L 190.519412 95.872 
L 187.647353 95.973937 
L 187.647353 96 
L 184.775294 96.079631 
L 184.775294 96.133953 
L 182.477647 96.217358 
L 182.477647 96.245687 
L 180.18 96.332308 
L 180.18 96.361739 
L 179.031176 96.391456 
L 179.031176 96.421463 
L 179.031176 94.381176 
L 175.584706 94.464 
L 175.584706 94.506667 
L 172.138235 94.617202 
L 172.138235 94.64 
L 169.266176 94.733617 
L 169.266176 94.757647 
L 166.394118 94.856393 
L 166.394118 94.881758 
L 163.522059 94.986067 
L 163.522059 95.012881 
L 160.65 95.123237 
L 160.65 95.151628 
L 158.352353 95.238817 
L 158.352353 95.268571 
L 156.054706 95.36 
L 156.054706 95.39122 
L 153.757059 95.487205 
L 153.757059 95.52 
L 151.459412 95.586835 
L 151.459412 95.655385 
L 149.161765 95.761569 
L 149.161765 95.797895 
L 147.438529 95.797895 
L 147.438529 95.909799 
L 145.140882 95.986939 
L 145.140882 96.066207 
L 143.417647 96.147692 
L 143.417647 96.189296 
L 140.545588 96.274286 
L 140.545588 96.406423 
L 138.822353 96.497778 
L 138.822353 96.544478 
L 138.822353 93.41594 
L 135.950294 93.489231 
L 135.950294 93.54 
L 133.078235 93.646452 
L 133.078235 93.674146 
L 130.206176 93.76 
L 130.206176 93.819661 
L 127.908529 93.913043 
L 127.908529 93.945263 
L 125.610882 94.045405 
L 125.610882 94.08 
L 123.313235 94.187664 
L 123.313235 94.224906 
L 121.59 94.301538 
L 121.59 94.340971 
L 119.866765 94.422178 
L 119.866765 94.464 
L 118.143529 94.550204 
L 118.143529 94.594639 
L 116.420294 94.686316 
L 116.420294 94.733617 
L 114.122647 94.831304 
L 114.122647 94.933333 
L 112.399412 94.986067 
L 112.399412 95.095172 
L 111.250588 95.151628 
L 111.250588 95.209412 
L 110.101765 95.268571 
L 110.101765 95.329157 
L 108.952941 95.39122 
L 108.952941 95.454815 
L 107.804118 95.454815 
L 107.804118 95.586835 
L 106.655294 95.655385 
L 106.655294 95.725714 
L 104.932059 95.797895 
L 104.932059 95.948108 
L 103.783235 95.948108 
L 103.783235 96.106667 
L 102.634412 96.189296 
L 102.634412 96.274286 
L 100.911176 96.361739 
L 100.911176 96.544478 
L 99.762353 96.544478 
L 99.762353 96.738462 
L 98.039118 96.84 
L 98.039118 97.052903 
L 97.464706 97.052903 
L 97.464706 97.16459 
L 96.890294 97.16459 
L 96.890294 97.28 
L 96.315882 97.28 
L 96.315882 97.399322 
L 95.741471 97.399322 
L 95.741471 97.522759 
L 95.167059 97.522759 
L 95.167059 97.650526 
L 94.592647 97.650526 
L 94.592647 97.782857 
L 94.592647 90.24 
L 63 90.24 
L 63 90.24 
" clip-path="url(#p5dad9ad07e)" style="fill: none; stroke: #ffd700; stroke-width: 1.5; stroke-linecap: square"/>
   </g>
   <g id="line2d_18">
    <path d="M 453.6 195.84 
L 453.6 139.934118 
L 452.068235 139.934118 
L 452.068235 140.106667 
L 452.068235 138.15623 
L 451.302353 138.15623 
L 451.302353 138.24 
L 451.302353 134.938413 
L 450.536471 134.938413 
L 450.536471 135.017385 
L 450.536471 130.971429 
L 449.770588 130.971429 
L 449.770588 131.044293 
L 449.770588 122.672907 
L 447.472941 122.672907 
L 447.472941 120.690277 
L 446.707059 120.690277 
L 446.707059 120.746667 
L 446.707059 120.019592 
L 442.877647 120.130503 
L 442.877647 120.298427 
L 442.111765 120.298427 
L 442.111765 120.354822 
L 442.111765 119.617444 
L 441.345882 119.617444 
L 441.345882 119.672768 
L 441.345882 118.931321 
L 439.048235 118.985558 
L 439.048235 119.094649 
L 439.048235 118.346464 
L 437.516471 118.4 
L 437.516471 118.45374 
L 437.516471 117.700038 
L 436.750588 117.700038 
L 436.750588 117.752644 
L 436.750588 116.233846 
L 434.452941 116.334208 
L 434.452941 116.384681 
L 432.155294 116.486214 
L 432.155294 116.537276 
L 429.857647 116.588538 
L 429.857647 116.691663 
L 429.857647 115.135874 
L 427.56 115.184882 
L 427.56 115.283478 
L 427.56 112.117291 
L 426.794118 112.117291 
L 426.794118 112.160958 
L 426.794118 111.36 
L 424.496471 111.36 
L 424.496471 111.487485 
L 423.730588 111.487485 
L 423.730588 111.530323 
L 423.730588 110.72 
L 419.135294 110.72 
L 419.135294 110.971288 
L 418.369412 110.971288 
L 418.369412 111.01377 
L 418.369412 109.360988 
L 416.071765 109.44 
L 416.071765 109.479752 
L 414.54 109.519668 
L 414.54 109.559751 
L 414.54 108.72 
L 412.242353 108.72 
L 412.242353 108.836226 
L 409.944706 108.875294 
L 409.944706 108.953924 
L 409.944706 108.100465 
L 407.647059 108.176306 
L 407.647059 108.214468 
L 407.647059 106.486154 
L 406.881176 106.486154 
L 406.881176 106.520942 
L 406.881176 105.649442 
L 403.817647 105.749287 
L 403.817647 105.782857 
L 400.754118 105.850435 
L 400.754118 105.918603 
L 400.754118 105.028621 
L 397.690588 105.126344 
L 397.690588 105.159205 
L 394.627059 105.225366 
L 394.627059 105.292116 
L 394.627059 104.382857 
L 391.563529 104.478202 
L 391.563529 104.51027 
L 388.5 104.607347 
L 388.5 104.64 
L 385.436471 104.738856 
L 385.436471 104.77211 
L 382.372941 104.872794 
L 382.372941 104.906667 
L 380.841176 104.940696 
L 380.841176 104.974884 
L 380.841176 104.024615 
L 377.777647 104.12169 
L 377.777647 104.154353 
L 376.245882 104.18717 
L 376.245882 104.220142 
L 376.245882 103.252322 
L 375.48 103.252322 
L 375.48 103.28323 
L 375.48 102.308571 
L 374.714118 102.308571 
L 374.714118 102.337375 
L 374.714118 101.355789 
L 370.884706 101.463188 
L 370.884706 101.490363 
L 367.055294 101.600391 
L 367.055294 101.628235 
L 362.46 101.712593 
L 362.46 101.798209 
L 360.162353 101.856 
L 360.162353 101.885113 
L 360.162353 100.853065 
L 356.332941 100.960812 
L 356.332941 100.988092 
L 352.503529 101.098612 
L 352.503529 101.126598 
L 349.44 101.211429 
L 349.44 101.24 
L 346.376471 101.326614 
L 346.376471 101.355789 
L 343.312941 101.444244 
L 343.312941 101.474043 
L 340.249412 101.534118 
L 340.249412 101.594839 
L 340.249412 100.4869 
L 337.185882 100.570435 
L 337.185882 100.598583 
L 333.356471 100.683956 
L 333.356471 100.741657 
L 332.590588 100.741657 
L 332.590588 100.770748 
L 332.590588 99.626667 
L 328.761176 99.732135 
L 328.761176 99.758873 
L 327.995294 99.758873 
L 327.995294 99.785763 
L 327.995294 98.616204 
L 324.165882 98.688 
L 324.165882 98.736552 
L 320.336471 98.835349 
L 320.336471 98.860408 
L 320.336471 97.650526 
L 315.741176 97.760475 
L 315.741176 97.782857 
L 314.209412 97.805373 
L 314.209412 97.828024 
L 314.209412 96.582342 
L 308.848235 96.679024 
L 308.848235 96.718528 
L 304.252941 96.819439 
L 304.252941 96.84 
L 299.657647 96.944762 
L 299.657647 96.966115 
L 295.062353 97.074951 
L 295.062353 97.097143 
L 292.764706 97.141961 
L 292.764706 97.16459 
L 292.764706 95.797895 
L 287.403529 95.890836 
L 287.403529 95.928889 
L 282.808235 96.026301 
L 282.808235 96.046186 
L 278.212941 96.147692 
L 278.212941 96.168421 
L 273.617647 96.274286 
L 273.617647 96.295914 
L 269.022353 96.406423 
L 269.022353 96.429011 
L 263.661176 96.497778 
L 263.661176 96.59188 
L 259.831765 96.688855 
L 259.831765 96.713563 
L 256.002353 96.814319 
L 256.002353 96.84 
L 252.172941 96.944762 
L 252.172941 96.971474 
L 247.577647 97.080486 
L 247.577647 97.136327 
L 244.514118 97.221818 
L 244.514118 97.250788 
L 241.450588 97.33916 
L 241.450588 97.369114 
L 238.387059 97.429787 
L 238.387059 97.491502 
L 234.557647 97.586087 
L 234.557647 97.650526 
L 233.025882 97.683172 
L 233.025882 97.716106 
L 233.025882 95.872 
L 229.196471 95.973937 
L 229.196471 96 
L 225.367059 96.106667 
L 225.367059 96.133953 
L 222.303529 96.217358 
L 222.303529 96.245687 
L 219.24 96.332308 
L 219.24 96.361739 
L 216.176471 96.451765 
L 216.176471 96.482365 
L 213.112941 96.576 
L 213.112941 96.607839 
L 210.049412 96.705306 
L 210.049412 96.738462 
L 206.22 96.84 
L 206.22 96.909474 
L 203.156471 97.016471 
L 203.156471 97.052903 
L 200.858824 97.126957 
L 200.858824 97.16459 
L 198.561176 97.241105 
L 198.561176 97.28 
L 196.263529 97.359101 
L 196.263529 97.399322 
L 195.497647 97.399322 
L 195.497647 97.44 
L 195.497647 95.067429 
L 191.668235 95.151628 
L 191.668235 95.209412 
L 188.604706 95.298683 
L 188.604706 95.329157 
L 185.541176 95.422822 
L 185.541176 95.454815 
L 182.477647 95.553208 
L 182.477647 95.586835 
L 179.414118 95.690323 
L 179.414118 95.725714 
L 176.350588 95.834702 
L 176.350588 95.872 
L 174.052941 95.948108 
L 174.052941 95.986939 
L 171.755294 96.066207 
L 171.755294 96.106667 
L 169.457647 96.189296 
L 169.457647 96.231489 
L 167.16 96.317698 
L 167.16 96.361739 
L 164.862353 96.451765 
L 164.862353 96.497778 
L 161.798824 96.59188 
L 161.798824 96.688855 
L 159.501176 96.788837 
L 159.501176 96.84 
L 156.437647 96.891969 
L 156.437647 97.052903 
L 154.905882 97.108293 
L 154.905882 97.16459 
L 153.374118 97.16459 
L 153.374118 97.28 
L 151.842353 97.33916 
L 151.842353 97.399322 
L 150.310588 97.460513 
L 150.310588 97.522759 
L 147.247059 97.586087 
L 147.247059 97.782857 
L 146.481176 97.782857 
L 146.481176 97.850811 
L 146.481176 94.08 
L 142.651765 94.187664 
L 142.651765 94.262857 
L 140.354118 94.340971 
L 140.354118 94.381176 
L 138.056471 94.464 
L 138.056471 94.506667 
L 135.758824 94.594639 
L 135.758824 94.64 
L 133.461176 94.733617 
L 133.461176 94.781935 
L 131.163529 94.881758 
L 131.163529 94.933333 
L 128.865882 94.986067 
L 128.865882 95.095172 
L 127.334118 95.151628 
L 127.334118 95.209412 
L 125.802353 95.268571 
L 125.802353 95.329157 
L 124.270588 95.39122 
L 124.270588 95.454815 
L 122.738824 95.52 
L 122.738824 95.586835 
L 121.207059 95.655385 
L 121.207059 95.725714 
L 119.675294 95.797895 
L 119.675294 95.872 
L 118.143529 95.948108 
L 118.143529 96.026301 
L 116.611765 96.026301 
L 116.611765 96.189296 
L 115.08 96.189296 
L 115.08 96.361739 
L 113.548235 96.451765 
L 113.548235 96.544478 
L 112.016471 96.64 
L 112.016471 96.738462 
L 110.484706 96.84 
L 110.484706 96.944762 
L 108.952941 96.944762 
L 108.952941 97.16459 
L 108.187059 97.16459 
L 108.187059 97.28 
L 107.421176 97.28 
L 107.421176 97.399322 
L 105.889412 97.399322 
L 105.889412 97.650526 
L 104.357647 97.650526 
L 104.357647 97.92 
L 103.591765 97.92 
L 103.591765 98.062222 
L 102.825882 98.062222 
L 102.825882 98.209811 
L 101.294118 98.209811 
L 101.294118 98.522353 
L 99.762353 98.522353 
L 99.762353 98.860408 
L 98.996471 98.860408 
L 98.996471 99.04 
L 97.464706 99.04 
L 97.464706 99.422609 
L 96.698824 99.422609 
L 96.698824 99.626667 
L 95.932941 99.626667 
L 95.932941 99.84 
L 95.167059 99.84 
L 95.167059 100.063256 
L 94.401176 100.063256 
L 94.401176 100.297143 
L 93.635294 100.297143 
L 93.635294 100.542439 
L 93.635294 90.24 
L 63 90.24 
L 63 90.24 
" clip-path="url(#p5dad9ad07e)" style="fill: none; stroke: #000080; stroke-width: 1.5; stroke-linecap: square"/>
   </g>
   <g id="line2d_19">
    <path d="M 453.6 407.04 
L 453.6 400.44 
L 451.302353 400.44 
L 451.302353 400.925446 
L 451.302353 387.402105 
L 449.004706 387.402105 
L 449.004706 387.924359 
L 449.004706 372.118812 
L 446.707059 372.118812 
L 446.707059 372.678095 
L 446.707059 357.605275 
L 444.409412 357.605275 
L 444.409412 358.194185 
L 444.409412 326.154894 
L 442.111765 326.154894 
L 442.111765 326.784 
L 442.111765 311.786974 
L 439.814118 311.786974 
L 439.814118 312.427283 
L 439.814118 307.688521 
L 437.516471 307.688521 
L 437.516471 308.333769 
L 437.516471 302.085872 
L 435.218824 302.085872 
L 435.218824 302.735706 
L 435.218824 298.8 
L 432.921176 298.8 
L 432.921176 299.453793 
L 432.921176 292.554563 
L 430.623529 292.554563 
L 430.623529 293.211429 
L 430.623529 272.980426 
L 428.325882 272.980426 
L 428.325882 273.630747 
L 428.325882 256.298015 
L 426.028235 256.298015 
L 426.028235 256.934253 
L 426.028235 255.950769 
L 423.730588 255.950769 
L 423.730588 256.590579 
L 423.730588 255.59814 
L 421.432941 255.59814 
L 421.432941 256.241556 
L 421.432941 250.11251 
L 419.135294 250.11251 
L 419.135294 250.752 
L 419.135294 230.433103 
L 416.837647 230.433103 
L 416.837647 231.04 
L 416.837647 220.937758 
L 414.54 220.937758 
L 414.54 221.526486 
L 414.54 210.643738 
L 412.242353 210.643738 
L 412.242353 211.209014 
L 412.242353 209.78717 
L 409.944706 209.78717 
L 409.944706 210.353744 
L 407.647059 210.353744 
L 407.647059 210.925714 
L 407.647059 206.553043 
L 405.349412 206.553043 
L 405.349412 207.11767 
L 405.349412 197.952 
L 403.051765 197.952 
L 403.051765 198.493266 
L 403.051765 190.396701 
L 400.754118 190.396701 
L 400.754118 190.915648 
L 398.456471 190.915648 
L 398.456471 191.44 
L 398.456471 179.286486 
L 396.158824 179.286486 
L 396.158824 179.770435 
L 396.158824 172.373333 
L 393.861176 172.373333 
L 393.861176 172.832179 
L 393.861176 170.923146 
L 389.265882 170.923146 
L 389.265882 171.84 
L 386.968235 171.84 
L 386.968235 172.306286 
L 384.670588 172.306286 
L 384.670588 172.777931 
L 384.670588 166.815439 
L 382.372941 166.815439 
L 382.372941 167.265882 
L 380.075294 167.265882 
L 380.075294 167.721657 
L 380.075294 148.32 
L 377.777647 148.32 
L 377.777647 148.685283 
L 375.48 148.685283 
L 375.48 149.05519 
L 375.48 146.739363 
L 373.182353 146.739363 
L 373.182353 147.101538 
L 373.182353 142.354286 
L 370.884706 142.354286 
L 370.884706 142.694902 
L 370.884706 135.296 
L 368.587059 135.296 
L 368.587059 135.598389 
L 368.587059 133.050811 
L 366.289412 133.050811 
L 366.289412 133.342041 
L 366.289412 117.201702 
L 363.991765 117.201702 
L 363.991765 117.394286 
L 363.991765 114.550791 
L 361.694118 114.550791 
L 361.694118 114.726957 
L 359.396471 114.726957 
L 359.396471 114.905693 
L 357.098824 114.905693 
L 357.098824 106.119699 
L 354.801176 106.119699 
L 354.801176 106.24 
L 350.205882 106.24 
L 350.205882 106.486154 
L 347.908235 106.486154 
L 347.908235 106.612093 
L 345.610588 106.612093 
L 345.610588 106.74 
L 343.312941 106.74 
L 343.312941 106.869921 
L 341.015294 106.869921 
L 341.015294 107.001905 
L 338.717647 107.001905 
L 338.717647 107.136 
L 336.42 107.136 
L 336.42 107.272258 
L 334.122353 107.272258 
L 334.122353 107.410732 
L 331.824706 107.410732 
L 331.824706 107.551475 
L 329.527059 107.551475 
L 329.527059 107.694545 
L 329.527059 104.32 
L 327.229412 104.32 
L 327.229412 104.438319 
L 315.741176 104.438319 
L 315.741176 105.061053 
L 315.741176 101.454159 
L 311.145882 101.554286 
L 311.145882 101.656216 
L 306.550588 101.76 
L 306.550588 101.865688 
L 304.252941 101.865688 
L 304.252941 101.973333 
L 304.252941 98.135327 
L 299.657647 98.209811 
L 299.657647 98.285714 
L 297.36 98.285714 
L 297.36 98.363077 
L 297.36 90.24 
L 63 90.24 
L 63 90.24 
" clip-path="url(#p5dad9ad07e)" style="fill: none; stroke: #40e0d0; stroke-width: 1.5; stroke-linecap: square"/>
   </g>
   <g id="patch_3">
    <path d="M 63 512.64 
L 63 69.12 
" style="fill: none; stroke: #000000; stroke-width: 0.8; stroke-linejoin: miter; stroke-linecap: square"/>
   </g>
   <g id="patch_4">
    <path d="M 453.6 512.64 
L 453.6 69.12 
" style="fill: none; stroke: #000000; stroke-width: 0.8; stroke-linejoin: miter; stroke-linecap: square"/>
   </g>
   <g id="patch_5">
    <path d="M 63 512.64 
L 453.6 512.64 
" style="fill: none; stroke: #000000; stroke-width: 0.8; stroke-linejoin: miter; stroke-linecap: square"/>
   </g>
   <g id="patch_6">
    <path d="M 63 69.12 
L 453.6 69.12 
" style="fill: none; stroke: #000000; stroke-width: 0.8; stroke-linejoin: miter; stroke-linecap: square"/>
   </g>
   <g id="text_15">
    <!-- f1=0.2 -->
    <g transform="translate(414.54 456.795647) scale(0.1 -0.1)">
     <defs>
      <path id="DejaVuSans-66" d="M 2375 4863 
L 2375 4384 
L 1825 4384 
Q 1516 4384 1395 4259 
Q 1275 4134 1275 3809 
L 1275 3500 
L 2222 3500 
L 2222 3053 
L 1275 3053 
L 1275 0 
L 697 0 
L 697 3053 
L 147 3053 
L 147 3500 
L 697 3500 
L 697 3744 
Q 697 4328 969 4595 
Q 1241 4863 1831 4863 
L 2375 4863 
z
" transform="scale(0.015625)"/>
      <path id="DejaVuSans-3d" d="M 678 2906 
L 4684 2906 
L 4684 2381 
L 678 2381 
L 678 2906 
z
M 678 1631 
L 4684 1631 
L 4684 1100 
L 678 1100 
L 678 1631 
z
" transform="scale(0.015625)"/>
     </defs>
     <use xlink:href="#DejaVuSans-66"/>
     <use xlink:href="#DejaVuSans-31" x="35.205078"/>
     <use xlink:href="#DejaVuSans-3d" x="98.828125"/>
     <use xlink:href="#DejaVuSans-30" x="182.617188"/>
     <use xlink:href="#DejaVuSans-2e" x="246.240234"/>
     <use xlink:href="#DejaVuSans-32" x="278.027344"/>
    </g>
   </g>
   <g id="text_16">
    <!-- f1=0.4 -->
    <g transform="translate(414.54 396.218697) scale(0.1 -0.1)">
     <use xlink:href="#DejaVuSans-66"/>
     <use xlink:href="#DejaVuSans-31" x="35.205078"/>
     <use xlink:href="#DejaVuSans-3d" x="98.828125"/>
     <use xlink:href="#DejaVuSans-30" x="182.617188"/>
     <use xlink:href="#DejaVuSans-2e" x="246.240234"/>
     <use xlink:href="#DejaVuSans-34" x="278.027344"/>
    </g>
   </g>
   <g id="text_17">
    <!-- f1=0.6 -->
    <g transform="translate(414.54 316.075032) scale(0.1 -0.1)">
     <use xlink:href="#DejaVuSans-66"/>
     <use xlink:href="#DejaVuSans-31" x="35.205078"/>
     <use xlink:href="#DejaVuSans-3d" x="98.828125"/>
     <use xlink:href="#DejaVuSans-30" x="182.617188"/>
     <use xlink:href="#DejaVuSans-2e" x="246.240234"/>
     <use xlink:href="#DejaVuSans-36" x="278.027344"/>
    </g>
   </g>
   <g id="text_18">
    <!-- f1=0.8 -->
    <g transform="translate(414.54 205.058415) scale(0.1 -0.1)">
     <use xlink:href="#DejaVuSans-66"/>
     <use xlink:href="#DejaVuSans-31" x="35.205078"/>
     <use xlink:href="#DejaVuSans-3d" x="98.828125"/>
     <use xlink:href="#DejaVuSans-30" x="182.617188"/>
     <use xlink:href="#DejaVuSans-2e" x="246.240234"/>
     <use xlink:href="#DejaVuSans-38" x="278.027344"/>
    </g>
   </g>
   <g id="text_19">
    <!-- Precision-Recall curve -->
    <g transform="translate(192.748125 63.12) scale(0.12 -0.12)">
     <defs>
      <path id="DejaVuSans-2d" d="M 313 2009 
L 1997 2009 
L 1997 1497 
L 313 1497 
L 313 2009 
z
" transform="scale(0.015625)"/>
      <path id="DejaVuSans-20" transform="scale(0.015625)"/>
      <path id="DejaVuSans-75" d="M 544 1381 
L 544 3500 
L 1119 3500 
L 1119 1403 
Q 1119 906 1312 657 
Q 1506 409 1894 409 
Q 2359 409 2629 706 
Q 2900 1003 2900 1516 
L 2900 3500 
L 3475 3500 
L 3475 0 
L 2900 0 
L 2900 538 
Q 2691 219 2414 64 
Q 2138 -91 1772 -91 
Q 1169 -91 856 284 
Q 544 659 544 1381 
z
M 1991 3584 
L 1991 3584 
z
" transform="scale(0.015625)"/>
      <path id="DejaVuSans-76" d="M 191 3500 
L 800 3500 
L 1894 563 
L 2988 3500 
L 3597 3500 
L 2284 0 
L 1503 0 
L 191 3500 
z
" transform="scale(0.015625)"/>
     </defs>
     <use xlink:href="#DejaVuSans-50"/>
     <use xlink:href="#DejaVuSans-72" x="58.552734"/>
     <use xlink:href="#DejaVuSans-65" x="97.416016"/>
     <use xlink:href="#DejaVuSans-63" x="158.939453"/>
     <use xlink:href="#DejaVuSans-69" x="213.919922"/>
     <use xlink:href="#DejaVuSans-73" x="241.703125"/>
     <use xlink:href="#DejaVuSans-69" x="293.802734"/>
     <use xlink:href="#DejaVuSans-6f" x="321.585938"/>
     <use xlink:href="#DejaVuSans-6e" x="382.767578"/>
     <use xlink:href="#DejaVuSans-2d" x="446.146484"/>
     <use xlink:href="#DejaVuSans-52" x="482.230469"/>
     <use xlink:href="#DejaVuSans-65" x="547.212891"/>
     <use xlink:href="#DejaVuSans-63" x="608.736328"/>
     <use xlink:href="#DejaVuSans-61" x="663.716797"/>
     <use xlink:href="#DejaVuSans-6c" x="724.996094"/>
     <use xlink:href="#DejaVuSans-6c" x="752.779297"/>
     <use xlink:href="#DejaVuSans-20" x="780.5625"/>
     <use xlink:href="#DejaVuSans-63" x="812.349609"/>
     <use xlink:href="#DejaVuSans-75" x="867.330078"/>
     <use xlink:href="#DejaVuSans-72" x="930.708984"/>
     <use xlink:href="#DejaVuSans-76" x="971.822266"/>
     <use xlink:href="#DejaVuSans-65" x="1031.001953"/>
    </g>
   </g>
   <g id="legend_1">
    <g id="patch_7">
     <path d="M 70 321.73625 
L 313.614063 321.73625 
Q 315.614063 321.73625 315.614063 319.73625 
L 315.614063 262.02375 
Q 315.614063 260.02375 313.614063 260.02375 
L 70 260.02375 
Q 68 260.02375 68 262.02375 
L 68 319.73625 
Q 68 321.73625 70 321.73625 
z
" style="fill: #ffffff; opacity: 0.8; stroke: #cccccc; stroke-linejoin: miter"/>
    </g>
    <g id="line2d_20">
     <path d="M 72 268.122187 
L 82 268.122187 
L 82 268.122187 
L 92 268.122187 
L 92 268.122187 
" style="fill: none; stroke: #ffd700; stroke-width: 1.5; stroke-linecap: square"/>
    </g>
    <g id="text_20">
     <!-- Micro-average precision-recall (AP = 0.97) -->
     <g transform="translate(100 271.622187) scale(0.1 -0.1)">
      <defs>
       <path id="DejaVuSans-4d" d="M 628 4666 
L 1569 4666 
L 2759 1491 
L 3956 4666 
L 4897 4666 
L 4897 0 
L 4281 0 
L 4281 4097 
L 3078 897 
L 2444 897 
L 1241 4097 
L 1241 0 
L 628 0 
L 628 4666 
z
" transform="scale(0.015625)"/>
       <path id="DejaVuSans-67" d="M 2906 1791 
Q 2906 2416 2648 2759 
Q 2391 3103 1925 3103 
Q 1463 3103 1205 2759 
Q 947 2416 947 1791 
Q 947 1169 1205 825 
Q 1463 481 1925 481 
Q 2391 481 2648 825 
Q 2906 1169 2906 1791 
z
M 3481 434 
Q 3481 -459 3084 -895 
Q 2688 -1331 1869 -1331 
Q 1566 -1331 1297 -1286 
Q 1028 -1241 775 -1147 
L 775 -588 
Q 1028 -725 1275 -790 
Q 1522 -856 1778 -856 
Q 2344 -856 2625 -561 
Q 2906 -266 2906 331 
L 2906 616 
Q 2728 306 2450 153 
Q 2172 0 1784 0 
Q 1141 0 747 490 
Q 353 981 353 1791 
Q 353 2603 747 3093 
Q 1141 3584 1784 3584 
Q 2172 3584 2450 3431 
Q 2728 3278 2906 2969 
L 2906 3500 
L 3481 3500 
L 3481 434 
z
" transform="scale(0.015625)"/>
       <path id="DejaVuSans-70" d="M 1159 525 
L 1159 -1331 
L 581 -1331 
L 581 3500 
L 1159 3500 
L 1159 2969 
Q 1341 3281 1617 3432 
Q 1894 3584 2278 3584 
Q 2916 3584 3314 3078 
Q 3713 2572 3713 1747 
Q 3713 922 3314 415 
Q 2916 -91 2278 -91 
Q 1894 -91 1617 61 
Q 1341 213 1159 525 
z
M 3116 1747 
Q 3116 2381 2855 2742 
Q 2594 3103 2138 3103 
Q 1681 3103 1420 2742 
Q 1159 2381 1159 1747 
Q 1159 1113 1420 752 
Q 1681 391 2138 391 
Q 2594 391 2855 752 
Q 3116 1113 3116 1747 
z
" transform="scale(0.015625)"/>
       <path id="DejaVuSans-28" d="M 1984 4856 
Q 1566 4138 1362 3434 
Q 1159 2731 1159 2009 
Q 1159 1288 1364 580 
Q 1569 -128 1984 -844 
L 1484 -844 
Q 1016 -109 783 600 
Q 550 1309 550 2009 
Q 550 2706 781 3412 
Q 1013 4119 1484 4856 
L 1984 4856 
z
" transform="scale(0.015625)"/>
       <path id="DejaVuSans-41" d="M 2188 4044 
L 1331 1722 
L 3047 1722 
L 2188 4044 
z
M 1831 4666 
L 2547 4666 
L 4325 0 
L 3669 0 
L 3244 1197 
L 1141 1197 
L 716 0 
L 50 0 
L 1831 4666 
z
" transform="scale(0.015625)"/>
       <path id="DejaVuSans-39" d="M 703 97 
L 703 672 
Q 941 559 1184 500 
Q 1428 441 1663 441 
Q 2288 441 2617 861 
Q 2947 1281 2994 2138 
Q 2813 1869 2534 1725 
Q 2256 1581 1919 1581 
Q 1219 1581 811 2004 
Q 403 2428 403 3163 
Q 403 3881 828 4315 
Q 1253 4750 1959 4750 
Q 2769 4750 3195 4129 
Q 3622 3509 3622 2328 
Q 3622 1225 3098 567 
Q 2575 -91 1691 -91 
Q 1453 -91 1209 -44 
Q 966 3 703 97 
z
M 1959 2075 
Q 2384 2075 2632 2365 
Q 2881 2656 2881 3163 
Q 2881 3666 2632 3958 
Q 2384 4250 1959 4250 
Q 1534 4250 1286 3958 
Q 1038 3666 1038 3163 
Q 1038 2656 1286 2365 
Q 1534 2075 1959 2075 
z
" transform="scale(0.015625)"/>
       <path id="DejaVuSans-37" d="M 525 4666 
L 3525 4666 
L 3525 4397 
L 1831 0 
L 1172 0 
L 2766 4134 
L 525 4134 
L 525 4666 
z
" transform="scale(0.015625)"/>
       <path id="DejaVuSans-29" d="M 513 4856 
L 1013 4856 
Q 1481 4119 1714 3412 
Q 1947 2706 1947 2009 
Q 1947 1309 1714 600 
Q 1481 -109 1013 -844 
L 513 -844 
Q 928 -128 1133 580 
Q 1338 1288 1338 2009 
Q 1338 2731 1133 3434 
Q 928 4138 513 4856 
z
" transform="scale(0.015625)"/>
      </defs>
      <use xlink:href="#DejaVuSans-4d"/>
      <use xlink:href="#DejaVuSans-69" x="86.279297"/>
      <use xlink:href="#DejaVuSans-63" x="114.0625"/>
      <use xlink:href="#DejaVuSans-72" x="169.042969"/>
      <use xlink:href="#DejaVuSans-6f" x="207.90625"/>
      <use xlink:href="#DejaVuSans-2d" x="270.962891"/>
      <use xlink:href="#DejaVuSans-61" x="307.046875"/>
      <use xlink:href="#DejaVuSans-76" x="368.326172"/>
      <use xlink:href="#DejaVuSans-65" x="427.505859"/>
      <use xlink:href="#DejaVuSans-72" x="489.029297"/>
      <use xlink:href="#DejaVuSans-61" x="530.142578"/>
      <use xlink:href="#DejaVuSans-67" x="591.421875"/>
      <use xlink:href="#DejaVuSans-65" x="654.898438"/>
      <use xlink:href="#DejaVuSans-20" x="716.421875"/>
      <use xlink:href="#DejaVuSans-70" x="748.208984"/>
      <use xlink:href="#DejaVuSans-72" x="811.685547"/>
      <use xlink:href="#DejaVuSans-65" x="850.548828"/>
      <use xlink:href="#DejaVuSans-63" x="912.072266"/>
      <use xlink:href="#DejaVuSans-69" x="967.052734"/>
      <use xlink:href="#DejaVuSans-73" x="994.835938"/>
      <use xlink:href="#DejaVuSans-69" x="1046.935547"/>
      <use xlink:href="#DejaVuSans-6f" x="1074.71875"/>
      <use xlink:href="#DejaVuSans-6e" x="1135.900391"/>
      <use xlink:href="#DejaVuSans-2d" x="1199.279297"/>
      <use xlink:href="#DejaVuSans-72" x="1235.363281"/>
      <use xlink:href="#DejaVuSans-65" x="1274.226562"/>
      <use xlink:href="#DejaVuSans-63" x="1335.75"/>
      <use xlink:href="#DejaVuSans-61" x="1390.730469"/>
      <use xlink:href="#DejaVuSans-6c" x="1452.009766"/>
      <use xlink:href="#DejaVuSans-6c" x="1479.792969"/>
      <use xlink:href="#DejaVuSans-20" x="1507.576172"/>
      <use xlink:href="#DejaVuSans-28" x="1539.363281"/>
      <use xlink:href="#DejaVuSans-41" x="1578.376953"/>
      <use xlink:href="#DejaVuSans-50" x="1646.785156"/>
      <use xlink:href="#DejaVuSans-20" x="1707.087891"/>
      <use xlink:href="#DejaVuSans-3d" x="1738.875"/>
      <use xlink:href="#DejaVuSans-20" x="1822.664062"/>
      <use xlink:href="#DejaVuSans-30" x="1854.451172"/>
      <use xlink:href="#DejaVuSans-2e" x="1918.074219"/>
      <use xlink:href="#DejaVuSans-39" x="1949.861328"/>
      <use xlink:href="#DejaVuSans-37" x="2013.484375"/>
      <use xlink:href="#DejaVuSans-29" x="2077.107422"/>
     </g>
    </g>
    <g id="line2d_21">
     <path d="M 72 282.800313 
L 82 282.800313 
L 82 282.800313 
L 92 282.800313 
L 92 282.800313 
" style="fill: none; stroke: #000080; stroke-width: 1.5; stroke-linecap: square"/>
    </g>
    <g id="text_21">
     <!-- Precision-recall for class 0 (AP = 0.98) -->
     <g transform="translate(100 286.300313) scale(0.1 -0.1)">
      <use xlink:href="#DejaVuSans-50"/>
      <use xlink:href="#DejaVuSans-72" x="58.552734"/>
      <use xlink:href="#DejaVuSans-65" x="97.416016"/>
      <use xlink:href="#DejaVuSans-63" x="158.939453"/>
      <use xlink:href="#DejaVuSans-69" x="213.919922"/>
      <use xlink:href="#DejaVuSans-73" x="241.703125"/>
      <use xlink:href="#DejaVuSans-69" x="293.802734"/>
      <use xlink:href="#DejaVuSans-6f" x="321.585938"/>
      <use xlink:href="#DejaVuSans-6e" x="382.767578"/>
      <use xlink:href="#DejaVuSans-2d" x="446.146484"/>
      <use xlink:href="#DejaVuSans-72" x="482.230469"/>
      <use xlink:href="#DejaVuSans-65" x="521.09375"/>
      <use xlink:href="#DejaVuSans-63" x="582.617188"/>
      <use xlink:href="#DejaVuSans-61" x="637.597656"/>
      <use xlink:href="#DejaVuSans-6c" x="698.876953"/>
      <use xlink:href="#DejaVuSans-6c" x="726.660156"/>
      <use xlink:href="#DejaVuSans-20" x="754.443359"/>
      <use xlink:href="#DejaVuSans-66" x="786.230469"/>
      <use xlink:href="#DejaVuSans-6f" x="821.435547"/>
      <use xlink:href="#DejaVuSans-72" x="882.617188"/>
      <use xlink:href="#DejaVuSans-20" x="923.730469"/>
      <use xlink:href="#DejaVuSans-63" x="955.517578"/>
      <use xlink:href="#DejaVuSans-6c" x="1010.498047"/>
      <use xlink:href="#DejaVuSans-61" x="1038.28125"/>
      <use xlink:href="#DejaVuSans-73" x="1099.560547"/>
      <use xlink:href="#DejaVuSans-73" x="1151.660156"/>
      <use xlink:href="#DejaVuSans-20" x="1203.759766"/>
      <use xlink:href="#DejaVuSans-30" x="1235.546875"/>
      <use xlink:href="#DejaVuSans-20" x="1299.169922"/>
      <use xlink:href="#DejaVuSans-28" x="1330.957031"/>
      <use xlink:href="#DejaVuSans-41" x="1369.970703"/>
      <use xlink:href="#DejaVuSans-50" x="1438.378906"/>
      <use xlink:href="#DejaVuSans-20" x="1498.681641"/>
      <use xlink:href="#DejaVuSans-3d" x="1530.46875"/>
      <use xlink:href="#DejaVuSans-20" x="1614.257812"/>
      <use xlink:href="#DejaVuSans-30" x="1646.044922"/>
      <use xlink:href="#DejaVuSans-2e" x="1709.667969"/>
      <use xlink:href="#DejaVuSans-39" x="1741.455078"/>
      <use xlink:href="#DejaVuSans-38" x="1805.078125"/>
      <use xlink:href="#DejaVuSans-29" x="1868.701172"/>
     </g>
    </g>
    <g id="line2d_22">
     <path d="M 72 297.478437 
L 82 297.478437 
L 82 297.478437 
L 92 297.478437 
L 92 297.478437 
" style="fill: none; stroke: #40e0d0; stroke-width: 1.5; stroke-linecap: square"/>
    </g>
    <g id="text_22">
     <!-- Precision-recall for class 1 (AP = 0.92) -->
     <g transform="translate(100 300.978437) scale(0.1 -0.1)">
      <use xlink:href="#DejaVuSans-50"/>
      <use xlink:href="#DejaVuSans-72" x="58.552734"/>
      <use xlink:href="#DejaVuSans-65" x="97.416016"/>
      <use xlink:href="#DejaVuSans-63" x="158.939453"/>
      <use xlink:href="#DejaVuSans-69" x="213.919922"/>
      <use xlink:href="#DejaVuSans-73" x="241.703125"/>
      <use xlink:href="#DejaVuSans-69" x="293.802734"/>
      <use xlink:href="#DejaVuSans-6f" x="321.585938"/>
      <use xlink:href="#DejaVuSans-6e" x="382.767578"/>
      <use xlink:href="#DejaVuSans-2d" x="446.146484"/>
      <use xlink:href="#DejaVuSans-72" x="482.230469"/>
      <use xlink:href="#DejaVuSans-65" x="521.09375"/>
      <use xlink:href="#DejaVuSans-63" x="582.617188"/>
      <use xlink:href="#DejaVuSans-61" x="637.597656"/>
      <use xlink:href="#DejaVuSans-6c" x="698.876953"/>
      <use xlink:href="#DejaVuSans-6c" x="726.660156"/>
      <use xlink:href="#DejaVuSans-20" x="754.443359"/>
      <use xlink:href="#DejaVuSans-66" x="786.230469"/>
      <use xlink:href="#DejaVuSans-6f" x="821.435547"/>
      <use xlink:href="#DejaVuSans-72" x="882.617188"/>
      <use xlink:href="#DejaVuSans-20" x="923.730469"/>
      <use xlink:href="#DejaVuSans-63" x="955.517578"/>
      <use xlink:href="#DejaVuSans-6c" x="1010.498047"/>
      <use xlink:href="#DejaVuSans-61" x="1038.28125"/>
      <use xlink:href="#DejaVuSans-73" x="1099.560547"/>
      <use xlink:href="#DejaVuSans-73" x="1151.660156"/>
      <use xlink:href="#DejaVuSans-20" x="1203.759766"/>
      <use xlink:href="#DejaVuSans-31" x="1235.546875"/>
      <use xlink:href="#DejaVuSans-20" x="1299.169922"/>
      <use xlink:href="#DejaVuSans-28" x="1330.957031"/>
      <use xlink:href="#DejaVuSans-41" x="1369.970703"/>
      <use xlink:href="#DejaVuSans-50" x="1438.378906"/>
      <use xlink:href="#DejaVuSans-20" x="1498.681641"/>
      <use xlink:href="#DejaVuSans-3d" x="1530.46875"/>
      <use xlink:href="#DejaVuSans-20" x="1614.257812"/>
      <use xlink:href="#DejaVuSans-30" x="1646.044922"/>
      <use xlink:href="#DejaVuSans-2e" x="1709.667969"/>
      <use xlink:href="#DejaVuSans-39" x="1741.455078"/>
      <use xlink:href="#DejaVuSans-32" x="1805.078125"/>
      <use xlink:href="#DejaVuSans-29" x="1868.701172"/>
     </g>
    </g>
    <g id="line2d_23">
     <path d="M 72 312.156563 
L 82 312.156563 
L 92 312.156563 
" style="fill: none; stroke: #808080; stroke-opacity: 0.2; stroke-width: 1.5; stroke-linecap: square"/>
    </g>
    <g id="text_23">
     <!-- iso-f1 curves -->
     <g transform="translate(100 315.656563) scale(0.1 -0.1)">
      <use xlink:href="#DejaVuSans-69"/>
      <use xlink:href="#DejaVuSans-73" x="27.783203"/>
      <use xlink:href="#DejaVuSans-6f" x="79.882812"/>
      <use xlink:href="#DejaVuSans-2d" x="142.939453"/>
      <use xlink:href="#DejaVuSans-66" x="179.023438"/>
      <use xlink:href="#DejaVuSans-31" x="214.228516"/>
      <use xlink:href="#DejaVuSans-20" x="277.851562"/>
      <use xlink:href="#DejaVuSans-63" x="309.638672"/>
      <use xlink:href="#DejaVuSans-75" x="364.619141"/>
      <use xlink:href="#DejaVuSans-72" x="427.998047"/>
      <use xlink:href="#DejaVuSans-76" x="469.111328"/>
      <use xlink:href="#DejaVuSans-65" x="528.291016"/>
      <use xlink:href="#DejaVuSans-73" x="589.814453"/>
     </g>
    </g>
   </g>
  </g>
 </g>
 <defs>
  <clipPath id="p5dad9ad07e">
   <rect x="63" y="69.12" width="390.6" height="443.52"/>
  </clipPath>
 </defs>
</svg>
