<?xml version="1.0" encoding="utf-8" standalone="no"?>
<!DOCTYPE svg PUBLIC "-//W3C//DTD SVG 1.1//EN"
  "http://www.w3.org/Graphics/SVG/1.1/DTD/svg11.dtd">
<svg xmlns:xlink="http://www.w3.org/1999/xlink" width="504pt" height="576pt" viewBox="0 0 504 576" xmlns="http://www.w3.org/2000/svg" version="1.1">
 <metadata>
  <rdf:RDF xmlns:dc="http://purl.org/dc/elements/1.1/" xmlns:cc="http://creativecommons.org/ns#" xmlns:rdf="http://www.w3.org/1999/02/22-rdf-syntax-ns#">
   <cc:Work>
    <dc:type rdf:resource="http://purl.org/dc/dcmitype/StillImage"/>
    <dc:date>2023-08-10T03:56:46.633222</dc:date>
    <dc:format>image/svg+xml</dc:format>
    <dc:creator>
     <cc:Agent>
      <dc:title>Matplotlib v3.7.2, https://matplotlib.org/</dc:title>
     </cc:Agent>
    </dc:creator>
   </cc:Work>
  </rdf:RDF>
 </metadata>
 <defs>
  <style type="text/css">*{stroke-linejoin: round; stroke-linecap: butt}</style>
 </defs>
 <g id="figure_1">
  <g id="patch_1">
   <path d="M 0 576 
L 504 576 
L 504 0 
L 0 0 
z
" style="fill: #ffffff"/>
  </g>
  <g id="axes_1">
   <g id="patch_2">
    <path d="M 63 512.64 
L 453.6 512.64 
L 453.6 69.12 
L 63 69.12 
z
" style="fill: #ffffff"/>
   </g>
   <g id="matplotlib.axis_1">
    <g id="xtick_1">
     <g id="line2d_1">
      <defs>
       <path id="mc62e1c4c71" d="M 0 0 
L 0 3.5 
" style="stroke: #000000; stroke-width: 0.8"/>
      </defs>
      <g>
       <use xlink:href="#mc62e1c4c71" x="63" y="512.64" style="stroke: #000000; stroke-width: 0.8"/>
      </g>
     </g>
     <g id="text_1">
      <!-- 0.0 -->
      <g transform="translate(55.048437 527.238438) scale(0.1 -0.1)">
       <defs>
        <path id="DejaVuSans-30" d="M 2034 4250 
Q 1547 4250 1301 3770 
Q 1056 3291 1056 2328 
Q 1056 1369 1301 889 
Q 1547 409 2034 409 
Q 2525 409 2770 889 
Q 3016 1369 3016 2328 
Q 3016 3291 2770 3770 
Q 2525 4250 2034 4250 
z
M 2034 4750 
Q 2819 4750 3233 4129 
Q 3647 3509 3647 2328 
Q 3647 1150 3233 529 
Q 2819 -91 2034 -91 
Q 1250 -91 836 529 
Q 422 1150 422 2328 
Q 422 3509 836 4129 
Q 1250 4750 2034 4750 
z
" transform="scale(0.015625)"/>
        <path id="DejaVuSans-2e" d="M 684 794 
L 1344 794 
L 1344 0 
L 684 0 
L 684 794 
z
" transform="scale(0.015625)"/>
       </defs>
       <use xlink:href="#DejaVuSans-30"/>
       <use xlink:href="#DejaVuSans-2e" x="63.623047"/>
       <use xlink:href="#DejaVuSans-30" x="95.410156"/>
      </g>
     </g>
    </g>
    <g id="xtick_2">
     <g id="line2d_2">
      <g>
       <use xlink:href="#mc62e1c4c71" x="141.12" y="512.64" style="stroke: #000000; stroke-width: 0.8"/>
      </g>
     </g>
     <g id="text_2">
      <!-- 0.2 -->
      <g transform="translate(133.168438 527.238438) scale(0.1 -0.1)">
       <defs>
        <path id="DejaVuSans-32" d="M 1228 531 
L 3431 531 
L 3431 0 
L 469 0 
L 469 531 
Q 828 903 1448 1529 
Q 2069 2156 2228 2338 
Q 2531 2678 2651 2914 
Q 2772 3150 2772 3378 
Q 2772 3750 2511 3984 
Q 2250 4219 1831 4219 
Q 1534 4219 1204 4116 
Q 875 4013 500 3803 
L 500 4441 
Q 881 4594 1212 4672 
Q 1544 4750 1819 4750 
Q 2544 4750 2975 4387 
Q 3406 4025 3406 3419 
Q 3406 3131 3298 2873 
Q 3191 2616 2906 2266 
Q 2828 2175 2409 1742 
Q 1991 1309 1228 531 
z
" transform="scale(0.015625)"/>
       </defs>
       <use xlink:href="#DejaVuSans-30"/>
       <use xlink:href="#DejaVuSans-2e" x="63.623047"/>
       <use xlink:href="#DejaVuSans-32" x="95.410156"/>
      </g>
     </g>
    </g>
    <g id="xtick_3">
     <g id="line2d_3">
      <g>
       <use xlink:href="#mc62e1c4c71" x="219.24" y="512.64" style="stroke: #000000; stroke-width: 0.8"/>
      </g>
     </g>
     <g id="text_3">
      <!-- 0.4 -->
      <g transform="translate(211.288438 527.238438) scale(0.1 -0.1)">
       <defs>
        <path id="DejaVuSans-34" d="M 2419 4116 
L 825 1625 
L 2419 1625 
L 2419 4116 
z
M 2253 4666 
L 3047 4666 
L 3047 1625 
L 3713 1625 
L 3713 1100 
L 3047 1100 
L 3047 0 
L 2419 0 
L 2419 1100 
L 313 1100 
L 313 1709 
L 2253 4666 
z
" transform="scale(0.015625)"/>
       </defs>
       <use xlink:href="#DejaVuSans-30"/>
       <use xlink:href="#DejaVuSans-2e" x="63.623047"/>
       <use xlink:href="#DejaVuSans-34" x="95.410156"/>
      </g>
     </g>
    </g>
    <g id="xtick_4">
     <g id="line2d_4">
      <g>
       <use xlink:href="#mc62e1c4c71" x="297.36" y="512.64" style="stroke: #000000; stroke-width: 0.8"/>
      </g>
     </g>
     <g id="text_4">
      <!-- 0.6 -->
      <g transform="translate(289.408437 527.238438) scale(0.1 -0.1)">
       <defs>
        <path id="DejaVuSans-36" d="M 2113 2584 
Q 1688 2584 1439 2293 
Q 1191 2003 1191 1497 
Q 1191 994 1439 701 
Q 1688 409 2113 409 
Q 2538 409 2786 701 
Q 3034 994 3034 1497 
Q 3034 2003 2786 2293 
Q 2538 2584 2113 2584 
z
M 3366 4563 
L 3366 3988 
Q 3128 4100 2886 4159 
Q 2644 4219 2406 4219 
Q 1781 4219 1451 3797 
Q 1122 3375 1075 2522 
Q 1259 2794 1537 2939 
Q 1816 3084 2150 3084 
Q 2853 3084 3261 2657 
Q 3669 2231 3669 1497 
Q 3669 778 3244 343 
Q 2819 -91 2113 -91 
Q 1303 -91 875 529 
Q 447 1150 447 2328 
Q 447 3434 972 4092 
Q 1497 4750 2381 4750 
Q 2619 4750 2861 4703 
Q 3103 4656 3366 4563 
z
" transform="scale(0.015625)"/>
       </defs>
       <use xlink:href="#DejaVuSans-30"/>
       <use xlink:href="#DejaVuSans-2e" x="63.623047"/>
       <use xlink:href="#DejaVuSans-36" x="95.410156"/>
      </g>
     </g>
    </g>
    <g id="xtick_5">
     <g id="line2d_5">
      <g>
       <use xlink:href="#mc62e1c4c71" x="375.48" y="512.64" style="stroke: #000000; stroke-width: 0.8"/>
      </g>
     </g>
     <g id="text_5">
      <!-- 0.8 -->
      <g transform="translate(367.528437 527.238438) scale(0.1 -0.1)">
       <defs>
        <path id="DejaVuSans-38" d="M 2034 2216 
Q 1584 2216 1326 1975 
Q 1069 1734 1069 1313 
Q 1069 891 1326 650 
Q 1584 409 2034 409 
Q 2484 409 2743 651 
Q 3003 894 3003 1313 
Q 3003 1734 2745 1975 
Q 2488 2216 2034 2216 
z
M 1403 2484 
Q 997 2584 770 2862 
Q 544 3141 544 3541 
Q 544 4100 942 4425 
Q 1341 4750 2034 4750 
Q 2731 4750 3128 4425 
Q 3525 4100 3525 3541 
Q 3525 3141 3298 2862 
Q 3072 2584 2669 2484 
Q 3125 2378 3379 2068 
Q 3634 1759 3634 1313 
Q 3634 634 3220 271 
Q 2806 -91 2034 -91 
Q 1263 -91 848 271 
Q 434 634 434 1313 
Q 434 1759 690 2068 
Q 947 2378 1403 2484 
z
M 1172 3481 
Q 1172 3119 1398 2916 
Q 1625 2713 2034 2713 
Q 2441 2713 2670 2916 
Q 2900 3119 2900 3481 
Q 2900 3844 2670 4047 
Q 2441 4250 2034 4250 
Q 1625 4250 1398 4047 
Q 1172 3844 1172 3481 
z
" transform="scale(0.015625)"/>
       </defs>
       <use xlink:href="#DejaVuSans-30"/>
       <use xlink:href="#DejaVuSans-2e" x="63.623047"/>
       <use xlink:href="#DejaVuSans-38" x="95.410156"/>
      </g>
     </g>
    </g>
    <g id="xtick_6">
     <g id="line2d_6">
      <g>
       <use xlink:href="#mc62e1c4c71" x="453.6" y="512.64" style="stroke: #000000; stroke-width: 0.8"/>
      </g>
     </g>
     <g id="text_6">
      <!-- 1.0 -->
      <g transform="translate(445.648438 527.238438) scale(0.1 -0.1)">
       <defs>
        <path id="DejaVuSans-31" d="M 794 531 
L 1825 531 
L 1825 4091 
L 703 3866 
L 703 4441 
L 1819 4666 
L 2450 4666 
L 2450 531 
L 3481 531 
L 3481 0 
L 794 0 
L 794 531 
z
" transform="scale(0.015625)"/>
       </defs>
       <use xlink:href="#DejaVuSans-31"/>
       <use xlink:href="#DejaVuSans-2e" x="63.623047"/>
       <use xlink:href="#DejaVuSans-30" x="95.410156"/>
      </g>
     </g>
    </g>
    <g id="text_7">
     <!-- Recall -->
     <g transform="translate(243.382812 540.916563) scale(0.1 -0.1)">
      <defs>
       <path id="DejaVuSans-52" d="M 2841 2188 
Q 3044 2119 3236 1894 
Q 3428 1669 3622 1275 
L 4263 0 
L 3584 0 
L 2988 1197 
Q 2756 1666 2539 1819 
Q 2322 1972 1947 1972 
L 1259 1972 
L 1259 0 
L 628 0 
L 628 4666 
L 2053 4666 
Q 2853 4666 3247 4331 
Q 3641 3997 3641 3322 
Q 3641 2881 3436 2590 
Q 3231 2300 2841 2188 
z
M 1259 4147 
L 1259 2491 
L 2053 2491 
Q 2509 2491 2742 2702 
Q 2975 2913 2975 3322 
Q 2975 3731 2742 3939 
Q 2509 4147 2053 4147 
L 1259 4147 
z
" transform="scale(0.015625)"/>
       <path id="DejaVuSans-65" d="M 3597 1894 
L 3597 1613 
L 953 1613 
Q 991 1019 1311 708 
Q 1631 397 2203 397 
Q 2534 397 2845 478 
Q 3156 559 3463 722 
L 3463 178 
Q 3153 47 2828 -22 
Q 2503 -91 2169 -91 
Q 1331 -91 842 396 
Q 353 884 353 1716 
Q 353 2575 817 3079 
Q 1281 3584 2069 3584 
Q 2775 3584 3186 3129 
Q 3597 2675 3597 1894 
z
M 3022 2063 
Q 3016 2534 2758 2815 
Q 2500 3097 2075 3097 
Q 1594 3097 1305 2825 
Q 1016 2553 972 2059 
L 3022 2063 
z
" transform="scale(0.015625)"/>
       <path id="DejaVuSans-63" d="M 3122 3366 
L 3122 2828 
Q 2878 2963 2633 3030 
Q 2388 3097 2138 3097 
Q 1578 3097 1268 2742 
Q 959 2388 959 1747 
Q 959 1106 1268 751 
Q 1578 397 2138 397 
Q 2388 397 2633 464 
Q 2878 531 3122 666 
L 3122 134 
Q 2881 22 2623 -34 
Q 2366 -91 2075 -91 
Q 1284 -91 818 406 
Q 353 903 353 1747 
Q 353 2603 823 3093 
Q 1294 3584 2113 3584 
Q 2378 3584 2631 3529 
Q 2884 3475 3122 3366 
z
" transform="scale(0.015625)"/>
       <path id="DejaVuSans-61" d="M 2194 1759 
Q 1497 1759 1228 1600 
Q 959 1441 959 1056 
Q 959 750 1161 570 
Q 1363 391 1709 391 
Q 2188 391 2477 730 
Q 2766 1069 2766 1631 
L 2766 1759 
L 2194 1759 
z
M 3341 1997 
L 3341 0 
L 2766 0 
L 2766 531 
Q 2569 213 2275 61 
Q 1981 -91 1556 -91 
Q 1019 -91 701 211 
Q 384 513 384 1019 
Q 384 1609 779 1909 
Q 1175 2209 1959 2209 
L 2766 2209 
L 2766 2266 
Q 2766 2663 2505 2880 
Q 2244 3097 1772 3097 
Q 1472 3097 1187 3025 
Q 903 2953 641 2809 
L 641 3341 
Q 956 3463 1253 3523 
Q 1550 3584 1831 3584 
Q 2591 3584 2966 3190 
Q 3341 2797 3341 1997 
z
" transform="scale(0.015625)"/>
       <path id="DejaVuSans-6c" d="M 603 4863 
L 1178 4863 
L 1178 0 
L 603 0 
L 603 4863 
z
" transform="scale(0.015625)"/>
      </defs>
      <use xlink:href="#DejaVuSans-52"/>
      <use xlink:href="#DejaVuSans-65" x="64.982422"/>
      <use xlink:href="#DejaVuSans-63" x="126.505859"/>
      <use xlink:href="#DejaVuSans-61" x="181.486328"/>
      <use xlink:href="#DejaVuSans-6c" x="242.765625"/>
      <use xlink:href="#DejaVuSans-6c" x="270.548828"/>
     </g>
    </g>
   </g>
   <g id="matplotlib.axis_2">
    <g id="ytick_1">
     <g id="line2d_7">
      <defs>
       <path id="mfc31e289a4" d="M 0 0 
L -3.5 0 
" style="stroke: #000000; stroke-width: 0.8"/>
      </defs>
      <g>
       <use xlink:href="#mfc31e289a4" x="63" y="512.64" style="stroke: #000000; stroke-width: 0.8"/>
      </g>
     </g>
     <g id="text_8">
      <!-- 0.0 -->
      <g transform="translate(40.096875 516.439219) scale(0.1 -0.1)">
       <use xlink:href="#DejaVuSans-30"/>
       <use xlink:href="#DejaVuSans-2e" x="63.623047"/>
       <use xlink:href="#DejaVuSans-30" x="95.410156"/>
      </g>
     </g>
    </g>
    <g id="ytick_2">
     <g id="line2d_8">
      <g>
       <use xlink:href="#mfc31e289a4" x="63" y="428.16" style="stroke: #000000; stroke-width: 0.8"/>
      </g>
     </g>
     <g id="text_9">
      <!-- 0.2 -->
      <g transform="translate(40.096875 431.959219) scale(0.1 -0.1)">
       <use xlink:href="#DejaVuSans-30"/>
       <use xlink:href="#DejaVuSans-2e" x="63.623047"/>
       <use xlink:href="#DejaVuSans-32" x="95.410156"/>
      </g>
     </g>
    </g>
    <g id="ytick_3">
     <g id="line2d_9">
      <g>
       <use xlink:href="#mfc31e289a4" x="63" y="343.68" style="stroke: #000000; stroke-width: 0.8"/>
      </g>
     </g>
     <g id="text_10">
      <!-- 0.4 -->
      <g transform="translate(40.096875 347.479219) scale(0.1 -0.1)">
       <use xlink:href="#DejaVuSans-30"/>
       <use xlink:href="#DejaVuSans-2e" x="63.623047"/>
       <use xlink:href="#DejaVuSans-34" x="95.410156"/>
      </g>
     </g>
    </g>
    <g id="ytick_4">
     <g id="line2d_10">
      <g>
       <use xlink:href="#mfc31e289a4" x="63" y="259.2" style="stroke: #000000; stroke-width: 0.8"/>
      </g>
     </g>
     <g id="text_11">
      <!-- 0.6 -->
      <g transform="translate(40.096875 262.999219) scale(0.1 -0.1)">
       <use xlink:href="#DejaVuSans-30"/>
       <use xlink:href="#DejaVuSans-2e" x="63.623047"/>
       <use xlink:href="#DejaVuSans-36" x="95.410156"/>
      </g>
     </g>
    </g>
    <g id="ytick_5">
     <g id="line2d_11">
      <g>
       <use xlink:href="#mfc31e289a4" x="63" y="174.72" style="stroke: #000000; stroke-width: 0.8"/>
      </g>
     </g>
     <g id="text_12">
      <!-- 0.8 -->
      <g transform="translate(40.096875 178.519219) scale(0.1 -0.1)">
       <use xlink:href="#DejaVuSans-30"/>
       <use xlink:href="#DejaVuSans-2e" x="63.623047"/>
       <use xlink:href="#DejaVuSans-38" x="95.410156"/>
      </g>
     </g>
    </g>
    <g id="ytick_6">
     <g id="line2d_12">
      <g>
       <use xlink:href="#mfc31e289a4" x="63" y="90.24" style="stroke: #000000; stroke-width: 0.8"/>
      </g>
     </g>
     <g id="text_13">
      <!-- 1.0 -->
      <g transform="translate(40.096875 94.039219) scale(0.1 -0.1)">
       <use xlink:href="#DejaVuSans-31"/>
       <use xlink:href="#DejaVuSans-2e" x="63.623047"/>
       <use xlink:href="#DejaVuSans-30" x="95.410156"/>
      </g>
     </g>
    </g>
    <g id="text_14">
     <!-- Precision -->
     <g transform="translate(34.017187 313.187031) rotate(-90) scale(0.1 -0.1)">
      <defs>
       <path id="DejaVuSans-50" d="M 1259 4147 
L 1259 2394 
L 2053 2394 
Q 2494 2394 2734 2622 
Q 2975 2850 2975 3272 
Q 2975 3691 2734 3919 
Q 2494 4147 2053 4147 
L 1259 4147 
z
M 628 4666 
L 2053 4666 
Q 2838 4666 3239 4311 
Q 3641 3956 3641 3272 
Q 3641 2581 3239 2228 
Q 2838 1875 2053 1875 
L 1259 1875 
L 1259 0 
L 628 0 
L 628 4666 
z
" transform="scale(0.015625)"/>
       <path id="DejaVuSans-72" d="M 2631 2963 
Q 2534 3019 2420 3045 
Q 2306 3072 2169 3072 
Q 1681 3072 1420 2755 
Q 1159 2438 1159 1844 
L 1159 0 
L 581 0 
L 581 3500 
L 1159 3500 
L 1159 2956 
Q 1341 3275 1631 3429 
Q 1922 3584 2338 3584 
Q 2397 3584 2469 3576 
Q 2541 3569 2628 3553 
L 2631 2963 
z
" transform="scale(0.015625)"/>
       <path id="DejaVuSans-69" d="M 603 3500 
L 1178 3500 
L 1178 0 
L 603 0 
L 603 3500 
z
M 603 4863 
L 1178 4863 
L 1178 4134 
L 603 4134 
L 603 4863 
z
" transform="scale(0.015625)"/>
       <path id="DejaVuSans-73" d="M 2834 3397 
L 2834 2853 
Q 2591 2978 2328 3040 
Q 2066 3103 1784 3103 
Q 1356 3103 1142 2972 
Q 928 2841 928 2578 
Q 928 2378 1081 2264 
Q 1234 2150 1697 2047 
L 1894 2003 
Q 2506 1872 2764 1633 
Q 3022 1394 3022 966 
Q 3022 478 2636 193 
Q 2250 -91 1575 -91 
Q 1294 -91 989 -36 
Q 684 19 347 128 
L 347 722 
Q 666 556 975 473 
Q 1284 391 1588 391 
Q 1994 391 2212 530 
Q 2431 669 2431 922 
Q 2431 1156 2273 1281 
Q 2116 1406 1581 1522 
L 1381 1569 
Q 847 1681 609 1914 
Q 372 2147 372 2553 
Q 372 3047 722 3315 
Q 1072 3584 1716 3584 
Q 2034 3584 2315 3537 
Q 2597 3491 2834 3397 
z
" transform="scale(0.015625)"/>
       <path id="DejaVuSans-6f" d="M 1959 3097 
Q 1497 3097 1228 2736 
Q 959 2375 959 1747 
Q 959 1119 1226 758 
Q 1494 397 1959 397 
Q 2419 397 2687 759 
Q 2956 1122 2956 1747 
Q 2956 2369 2687 2733 
Q 2419 3097 1959 3097 
z
M 1959 3584 
Q 2709 3584 3137 3096 
Q 3566 2609 3566 1747 
Q 3566 888 3137 398 
Q 2709 -91 1959 -91 
Q 1206 -91 779 398 
Q 353 888 353 1747 
Q 353 2609 779 3096 
Q 1206 3584 1959 3584 
z
" transform="scale(0.015625)"/>
       <path id="DejaVuSans-6e" d="M 3513 2113 
L 3513 0 
L 2938 0 
L 2938 2094 
Q 2938 2591 2744 2837 
Q 2550 3084 2163 3084 
Q 1697 3084 1428 2787 
Q 1159 2491 1159 1978 
L 1159 0 
L 581 0 
L 581 3500 
L 1159 3500 
L 1159 2956 
Q 1366 3272 1645 3428 
Q 1925 3584 2291 3584 
Q 2894 3584 3203 3211 
Q 3513 2838 3513 2113 
z
" transform="scale(0.015625)"/>
      </defs>
      <use xlink:href="#DejaVuSans-50"/>
      <use xlink:href="#DejaVuSans-72" x="58.552734"/>
      <use xlink:href="#DejaVuSans-65" x="97.416016"/>
      <use xlink:href="#DejaVuSans-63" x="158.939453"/>
      <use xlink:href="#DejaVuSans-69" x="213.919922"/>
      <use xlink:href="#DejaVuSans-73" x="241.703125"/>
      <use xlink:href="#DejaVuSans-69" x="293.802734"/>
      <use xlink:href="#DejaVuSans-6f" x="321.585938"/>
      <use xlink:href="#DejaVuSans-6e" x="382.767578"/>
     </g>
    </g>
   </g>
   <g id="line2d_13">
    <path d="M 106.364571 87.111111 
L 114.256286 335.121569 
L 122.148 388.266667 
L 130.039714 411.432479 
L 137.931429 424.405333 
L 145.823143 432.699454 
L 153.714857 438.459259 
L 161.606571 442.692369 
L 169.498286 445.934752 
L 177.39 448.497778 
L 185.281714 450.574713 
L 193.173429 452.291864 
L 201.065143 453.735266 
L 208.956857 454.965548 
L 216.848571 456.026667 
L 224.740286 456.951267 
L 232.632 457.764103 
L 240.523714 458.484283 
L 248.415429 459.126797 
L 256.307143 459.703566 
L 264.198857 460.224189 
L 272.090571 460.696484 
L 279.982286 461.126882 
L 287.874 461.520721 
L 295.765714 461.882469 
L 303.657429 462.215896 
L 311.549143 462.524201 
L 319.440857 462.810121 
L 327.332571 463.076008 
L 335.224286 463.323897 
L 343.116 463.555556 
L 351.007714 463.772526 
L 358.899429 463.976164 
L 366.791143 464.16766 
L 374.682857 464.34807 
L 382.574571 464.518329 
L 390.466286 464.67927 
L 398.358 464.831638 
L 406.249714 464.976101 
L 414.141429 465.113257 
L 422.033143 465.243647 
L 429.924857 465.367761 
L 437.816571 465.48604 
L 445.708286 465.598887 
L 453.6 465.706667 
" clip-path="url(#p40411bb7d2)" style="fill: none; stroke: #808080; stroke-opacity: 0.2; stroke-width: 1.5; stroke-linecap: square"/>
   </g>
   <g id="line2d_14">
    <path d="M 157.422446 -1 
L 161.606571 106.018366 
L 169.498286 195.602697 
L 177.39 246.203077 
L 185.281714 278.718845 
L 193.173429 301.375314 
L 201.065143 318.066383 
L 208.956857 330.873984 
L 216.848571 341.012211 
L 224.740286 349.236835 
L 232.632 356.042927 
L 240.523714 361.76834 
L 248.415429 366.65153 
L 256.307143 370.865606 
L 264.198857 374.539275 
L 272.090571 377.770225 
L 279.982286 380.633938 
L 287.874 383.189658 
L 295.765714 385.484536 
L 303.657429 387.556567 
L 311.549143 389.436707 
L 319.440857 391.150434 
L 327.332571 392.718904 
L 335.224286 394.159836 
L 343.116 395.488177 
L 351.007714 396.716627 
L 358.899429 397.856047 
L 366.791143 398.915775 
L 374.682857 399.903891 
L 382.574571 400.827415 
L 390.466286 401.692481 
L 398.358 402.504469 
L 406.249714 403.268118 
L 414.141429 403.98762 
L 422.033143 404.666697 
L 429.924857 405.308661 
L 437.816571 405.916475 
L 445.708286 406.492792 
L 453.6 407.04 
" clip-path="url(#p40411bb7d2)" style="fill: none; stroke: #808080; stroke-opacity: 0.2; stroke-width: 1.5; stroke-linecap: square"/>
   </g>
   <g id="line2d_15">
    <path d="M 218.832894 -1 
L 224.740286 52.684937 
L 232.632 102.822128 
L 240.523714 139.845495 
L 248.415429 168.305047 
L 256.307143 190.864084 
L 264.198857 209.185275 
L 272.090571 224.360243 
L 279.982286 237.135335 
L 287.874 248.038135 
L 295.765714 257.452138 
L 303.657429 265.662802 
L 311.549143 272.88699 
L 319.440857 279.29241 
L 327.332571 285.010791 
L 335.224286 290.147044 
L 343.116 294.785753 
L 351.007714 298.995875 
L 358.899429 302.834184 
L 366.791143 306.347851 
L 374.682857 309.576393 
L 382.574571 312.553163 
L 390.466286 315.306505 
L 398.358 317.860665 
L 406.249714 320.236502 
L 414.141429 322.452061 
L 422.033143 324.523032 
L 429.924857 326.463122 
L 437.816571 328.284356 
L 445.708286 329.997334 
L 453.6 331.611429 
" clip-path="url(#p40411bb7d2)" style="fill: none; stroke: #808080; stroke-opacity: 0.2; stroke-width: 1.5; stroke-linecap: square"/>
   </g>
   <g id="line2d_16">
    <path d="M 295.834235 -1 
L 303.657429 30.968385 
L 311.549143 57.702798 
L 319.440857 80.226062 
L 327.332571 99.460531 
L 335.224286 116.077526 
L 343.116 130.577297 
L 351.007714 143.340254 
L 358.899429 154.660822 
L 366.791143 164.770438 
L 374.682857 173.853538 
L 382.574571 182.058917 
L 390.466286 189.507933 
L 398.358 196.300561 
L 406.249714 202.519898 
L 414.141429 208.235583 
L 422.033143 213.506415 
L 429.924857 218.382384 
L 437.816571 222.906258 
L 445.708286 227.114847 
L 453.6 231.04 
" clip-path="url(#p40411bb7d2)" style="fill: none; stroke: #808080; stroke-opacity: 0.2; stroke-width: 1.5; stroke-linecap: square"/>
   </g>
   <g id="line2d_17">
    <path d="M 453.6 301.44 
L 453.6 295.697402 
L 453.025588 295.697402 
L 453.025588 295.852698 
L 453.025588 291.165405 
L 452.451176 291.165405 
L 452.451176 291.32068 
L 452.451176 265.967132 
L 451.876765 265.967132 
L 451.876765 266.118621 
L 451.876765 260.688634 
L 451.302353 260.688634 
L 451.302353 260.838942 
L 451.302353 229.36381 
L 450.727941 229.36381 
L 450.727941 229.501966 
L 450.727941 225.510091 
L 450.153529 225.510091 
L 450.153529 225.646452 
L 450.153529 223.900041 
L 449.579118 223.900041 
L 449.579118 224.035736 
L 449.579118 216.21122 
L 449.004706 216.21122 
L 449.004706 216.342714 
L 449.004706 214.788164 
L 448.430294 214.788164 
L 448.430294 214.918992 
L 448.430294 208.20348 
L 447.855882 208.20348 
L 447.855882 208.330323 
L 447.855882 201.642198 
L 447.281471 201.642198 
L 447.281471 201.764752 
L 447.281471 196.194759 
L 446.707059 196.194759 
L 446.707059 196.313543 
L 446.707059 188.314483 
L 446.132647 188.314483 
L 446.132647 188.427342 
L 446.132647 179.61305 
L 445.558235 179.61305 
L 445.558235 179.718817 
L 445.558235 178.135363 
L 444.983824 178.135363 
L 444.983824 178.24 
L 444.983824 174.618339 
L 444.409412 174.618339 
L 444.409412 174.72 
L 444.409412 173.494172 
L 443.835 173.494172 
L 443.835 173.594964 
L 443.835 173.184 
L 443.260588 173.184 
L 443.260588 173.28466 
L 443.260588 165.706005 
L 442.686176 165.706005 
L 442.686176 165.799752 
L 442.686176 159.660986 
L 442.111765 159.660986 
L 442.111765 159.748861 
L 442.111765 157.952977 
L 441.537353 157.952977 
L 441.537353 158.039236 
L 441.537353 154.84874 
L 440.962941 154.84874 
L 440.962941 154.931892 
L 440.962941 154.008774 
L 439.814118 154.091163 
L 439.814118 154.173765 
L 439.239706 154.173765 
L 439.239706 154.25658 
L 439.239706 152.39 
L 438.665294 152.39 
L 438.665294 152.47103 
L 438.665294 149.153684 
L 438.090882 149.153684 
L 438.090882 149.231304 
L 438.090882 148.751873 
L 436.942059 148.751873 
L 436.942059 148.906667 
L 436.942059 148.424901 
L 436.367647 148.424901 
L 436.367647 146.071242 
L 435.793235 146.071242 
L 435.793235 146.145882 
L 435.793235 145.655261 
L 434.644412 145.729544 
L 434.644412 145.804027 
L 434.07 145.804027 
L 434.07 145.87871 
L 434.07 145.385087 
L 433.495588 145.385087 
L 433.495588 145.459407 
L 433.495588 141.962449 
L 432.346765 142.032916 
L 432.346765 142.103574 
L 431.197941 142.103574 
L 431.197941 142.245472 
L 431.197941 140.719121 
L 430.623529 140.719121 
L 430.623529 140.788556 
L 430.623529 138.731286 
L 429.474706 138.731286 
L 429.474706 138.865798 
L 429.474706 137.826092 
L 428.325882 137.892368 
L 428.325882 137.958828 
L 427.751471 137.958828 
L 427.751471 138.025475 
L 427.751471 134.326883 
L 427.177059 134.326883 
L 427.177059 134.389153 
L 427.177059 131.69889 
L 426.602647 131.69889 
L 426.602647 131.757949 
L 426.602647 129.575244 
L 426.028235 129.575244 
L 426.028235 129.631679 
L 426.028235 129.081379 
L 425.453824 129.081379 
L 425.453824 129.137266 
L 425.453824 128.030476 
L 422.581765 128.030476 
L 422.581765 128.305116 
L 422.007353 128.305116 
L 422.007353 128.360524 
L 422.007353 127.80035 
L 420.858529 127.80035 
L 420.858529 127.910175 
L 420.858529 127.346881 
L 420.284118 127.346881 
L 420.284118 127.40129 
L 420.284118 126.268235 
L 419.135294 126.321296 
L 419.135294 126.374513 
L 419.135294 125.803959 
L 418.560882 125.803959 
L 418.560882 125.856568 
L 418.560882 124.708843 
L 417.986471 124.708843 
L 417.986471 124.760059 
L 417.986471 121.270885 
L 416.837647 121.317477 
L 416.837647 121.364211 
L 416.837647 120.77494 
L 416.263235 120.77494 
L 416.263235 120.820995 
L 416.263235 120.229124 
L 414.54 120.32 
L 414.54 120.365645 
L 413.965588 120.365645 
L 413.965588 120.411429 
L 413.965588 119.814429 
L 411.093529 119.904733 
L 411.093529 120.041227 
L 411.093529 119.438157 
L 409.370294 119.483077 
L 409.370294 119.573333 
L 407.647059 119.664149 
L 407.647059 119.709767 
L 407.072647 119.709767 
L 407.072647 119.755528 
L 407.072647 117.916755 
L 405.923824 117.96 
L 405.923824 118.00338 
L 405.923824 116.764333 
L 404.200588 116.847874 
L 404.200588 116.889842 
L 403.626176 116.889842 
L 403.626176 116.931943 
L 403.626176 116.305823 
L 401.902941 116.388571 
L 401.902941 116.430143 
L 401.902941 113.8944 
L 399.605294 113.932308 
L 399.605294 114.046763 
L 397.882059 114.085161 
L 397.882059 114.16233 
L 397.882059 113.516499 
L 397.307647 113.516499 
L 397.307647 113.554286 
L 397.307647 111.601175 
L 396.733235 111.601175 
L 396.733235 111.636078 
L 396.733235 110.979771 
L 393.861176 111.047882 
L 393.861176 110.487273 
L 393.286765 110.487273 
L 393.286765 110.520795 
L 393.286765 109.18485 
L 392.712353 109.18485 
L 392.712353 109.216373 
L 392.712353 108.544 
L 390.414706 108.63598 
L 390.414706 108.666846 
L 388.691471 108.728889 
L 388.691471 108.760067 
L 388.691471 108.077838 
L 386.393824 108.168693 
L 386.393824 108.199184 
L 386.393824 106.125128 
L 385.245 106.152329 
L 385.245 106.179623 
L 385.245 105.481237 
L 382.372941 105.586713 
L 382.372941 105.61331 
L 381.224118 105.64 
L 381.224118 105.666783 
L 381.224118 104.95777 
L 378.926471 105.009231 
L 378.926471 105.061053 
L 378.926471 104.344745 
L 375.48 104.444602 
L 375.48 104.495062 
L 372.607941 104.597066 
L 372.607941 104.622796 
L 370.884706 104.674532 
L 370.884706 104.700541 
L 370.884706 103.964188 
L 368.012647 104.064 
L 368.012647 104.08918 
L 365.140588 104.190826 
L 365.140588 104.216471 
L 360.545294 104.268044 
L 360.545294 104.425075 
L 360.545294 103.662056 
L 359.970882 103.662056 
L 359.970882 103.687191 
L 359.970882 102.919925 
L 358.247647 102.943759 
L 358.247647 102.991698 
L 358.247647 102.217316 
L 355.375588 102.308571 
L 355.375588 102.331603 
L 353.077941 102.377931 
L 353.077941 102.424615 
L 353.077941 101.63422 
L 350.780294 101.700465 
L 350.780294 101.722718 
L 350.780294 100.923268 
L 345.610588 101.028212 
L 345.610588 101.113663 
L 342.164118 101.2224 
L 342.164118 101.244409 
L 339.292059 101.310968 
L 339.292059 101.355789 
L 337.568824 101.400976 
L 337.568824 101.423707 
L 337.568824 100.58449 
L 334.122353 100.691134 
L 334.122353 100.712727 
L 329.527059 100.822046 
L 329.527059 100.888739 
L 326.655 100.978983 
L 326.655 101.001783 
L 324.931765 101.047676 
L 324.931765 101.070769 
L 324.931765 100.189465 
L 321.485294 100.297143 
L 321.485294 100.318959 
L 318.038824 100.429474 
L 318.038824 100.451868 
L 315.741176 100.519646 
L 315.741176 100.542439 
L 315.741176 99.626667 
L 312.294706 99.732135 
L 312.294706 99.753514 
L 308.848235 99.84 
L 308.848235 99.883836 
L 305.976176 99.972719 
L 305.976176 99.995196 
L 304.252941 100.040464 
L 304.252941 100.063256 
L 304.252941 99.101538 
L 300.806471 99.206038 
L 300.806471 99.227234 
L 297.36 99.334737 
L 297.36 99.356547 
L 293.913529 99.467184 
L 293.913529 99.489635 
L 292.190294 99.534866 
L 292.190294 99.557647 
L 292.190294 98.542703 
L 289.318235 98.625112 
L 289.318235 98.64597 
L 289.318235 97.613566 
L 285.871765 97.706667 
L 285.871765 97.72557 
L 282.425294 97.821538 
L 282.425294 97.841028 
L 278.978824 97.94 
L 278.978824 97.960104 
L 275.532353 98.062222 
L 275.532353 98.082971 
L 274.383529 98.10383 
L 274.383529 98.1248 
L 274.383529 97.016471 
L 270.937059 97.108293 
L 270.937059 97.126957 
L 270.937059 95.994768 
L 266.341765 96.090416 
L 266.341765 96.123008 
L 262.895294 96.206102 
L 262.895294 96.223003 
L 262.895294 95.04 
L 258.3 95.137391 
L 258.3 95.151628 
L 253.704706 95.25365 
L 253.704706 95.268571 
L 248.535 95.375562 
L 248.535 95.406972 
L 244.514118 95.503551 
L 244.514118 95.52 
L 240.493235 95.620892 
L 240.493235 95.638083 
L 236.472353 95.743583 
L 236.472353 95.761569 
L 232.451471 95.872 
L 232.451471 95.890836 
L 229.005 95.986939 
L 229.005 96.006553 
L 225.558529 96.106667 
L 225.558529 96.127108 
L 222.112059 96.231489 
L 222.112059 96.252811 
L 218.665588 96.361739 
L 218.665588 96.384 
L 215.793529 96.474686 
L 215.793529 96.497778 
L 212.921471 96.59188 
L 212.921471 96.615849 
L 210.049412 96.713563 
L 210.049412 96.738462 
L 207.177353 96.84 
L 207.177353 96.865882 
L 204.305294 96.971474 
L 204.305294 96.9984 
L 201.433235 97.108293 
L 201.433235 97.136327 
L 197.986765 97.221818 
L 197.986765 97.309456 
L 195.689118 97.399322 
L 195.689118 97.429787 
L 193.391471 97.522759 
L 193.391471 97.554286 
L 191.093824 97.618166 
L 191.093824 97.683172 
L 190.519412 97.683172 
L 190.519412 97.716106 
L 190.519412 95.872 
L 187.647353 95.948108 
L 187.647353 96 
L 184.775294 96.106667 
L 184.775294 96.133953 
L 182.477647 96.217358 
L 182.477647 96.245687 
L 180.18 96.332308 
L 180.18 96.361739 
L 177.882353 96.451765 
L 177.882353 96.482365 
L 176.159118 96.544478 
L 176.159118 96.576 
L 176.159118 94.485226 
L 172.712647 94.594639 
L 172.712647 94.617202 
L 169.840588 94.709841 
L 169.840588 94.733617 
L 166.968529 94.831304 
L 166.968529 94.856393 
L 163.522059 94.933333 
L 163.522059 95.012881 
L 160.65 95.123237 
L 160.65 95.151628 
L 158.352353 95.209412 
L 158.352353 95.268571 
L 156.054706 95.36 
L 156.054706 95.39122 
L 153.757059 95.454815 
L 153.757059 95.52 
L 150.885 95.620892 
L 150.885 95.690323 
L 148.587353 95.797895 
L 148.587353 95.834702 
L 146.864118 95.909799 
L 146.864118 95.948108 
L 145.140882 95.986939 
L 145.140882 96.066207 
L 143.417647 96.147692 
L 143.417647 96.189296 
L 141.694412 96.274286 
L 141.694412 96.317698 
L 139.971176 96.361739 
L 139.971176 96.451765 
L 138.247941 96.544478 
L 138.247941 96.59188 
L 136.524706 96.688855 
L 136.524706 96.738462 
L 134.801471 96.788837 
L 134.801471 96.891969 
L 133.078235 96.9984 
L 133.078235 97.052903 
L 131.929412 97.108293 
L 131.929412 97.16459 
L 130.780588 97.221818 
L 130.780588 97.28 
L 129.631765 97.33916 
L 129.631765 97.399322 
L 128.482941 97.460513 
L 128.482941 97.522759 
L 127.334118 97.586087 
L 127.334118 97.650526 
L 126.185294 97.716106 
L 126.185294 97.782857 
L 124.462059 97.850811 
L 124.462059 97.990459 
L 123.313235 98.062222 
L 123.313235 98.135327 
L 122.164412 98.209811 
L 122.164412 98.285714 
L 121.015588 98.363077 
L 121.015588 98.441942 
L 119.866765 98.522353 
L 119.866765 98.604356 
L 118.143529 98.688 
L 118.143529 98.860408 
L 116.994706 98.949278 
L 116.994706 99.04 
L 115.845882 99.132632 
L 115.845882 99.227234 
L 114.697059 99.323871 
L 114.697059 99.422609 
L 113.548235 99.523516 
L 113.548235 99.626667 
L 112.399412 99.732135 
L 112.399412 99.84 
L 111.250588 99.84 
L 111.250588 100.063256 
L 110.676176 100.063256 
L 110.676176 100.178824 
L 110.101765 100.178824 
L 110.101765 100.297143 
L 108.952941 100.297143 
L 108.952941 100.542439 
L 108.378529 100.542439 
L 108.378529 100.66963 
L 107.804118 100.66963 
L 107.804118 100.8 
L 107.229706 100.8 
L 107.229706 100.933671 
L 106.655294 100.933671 
L 106.655294 101.070769 
L 106.080882 101.070769 
L 106.080882 101.211429 
L 105.506471 101.211429 
L 105.506471 101.355789 
L 104.932059 101.355789 
L 104.932059 101.504 
L 104.357647 101.504 
L 104.357647 101.656216 
L 103.783235 101.656216 
L 103.783235 101.812603 
L 103.208824 101.812603 
L 103.208824 101.973333 
L 102.634412 101.973333 
L 102.634412 102.138592 
L 102.06 102.138592 
L 102.06 102.308571 
L 101.485588 102.308571 
L 101.485588 102.483478 
L 100.336765 102.483478 
L 100.336765 102.848955 
L 99.762353 102.848955 
L 99.762353 103.04 
L 99.762353 96.738462 
L 98.613529 96.84 
L 98.613529 96.944762 
L 97.464706 96.944762 
L 97.464706 97.16459 
L 96.890294 97.16459 
L 96.890294 97.28 
L 96.315882 97.28 
L 96.315882 97.399322 
L 95.741471 97.399322 
L 95.741471 97.522759 
L 94.592647 97.522759 
L 94.592647 97.782857 
L 94.018235 97.782857 
L 94.018235 97.92 
L 93.443824 97.92 
L 93.443824 98.062222 
L 92.295 98.062222 
L 92.295 98.363077 
L 91.720588 98.363077 
L 91.720588 98.522353 
L 90.571765 98.522353 
L 90.571765 98.860408 
L 89.422941 98.860408 
L 89.422941 99.227234 
L 88.848529 99.227234 
L 88.848529 99.422609 
L 88.274118 99.422609 
L 88.274118 99.626667 
L 87.699706 99.626667 
L 87.699706 99.84 
L 87.125294 99.84 
L 87.125294 100.063256 
L 86.550882 100.063256 
L 86.550882 100.297143 
L 85.976471 100.297143 
L 85.976471 100.542439 
L 85.402059 100.542439 
L 85.402059 100.8 
L 84.827647 100.8 
L 84.827647 101.070769 
L 84.253235 101.070769 
L 84.253235 101.355789 
L 83.678824 101.355789 
L 83.678824 101.656216 
L 83.678824 90.24 
L 63 90.24 
L 63 90.24 
" clip-path="url(#p40411bb7d2)" style="fill: none; stroke: #ffd700; stroke-width: 1.5; stroke-linecap: square"/>
   </g>
   <g id="line2d_18">
    <path d="M 453.6 195.84 
L 453.6 145.022253 
L 452.834118 145.022253 
L 452.834118 145.115897 
L 452.834118 140.664913 
L 451.302353 140.664913 
L 451.302353 140.84 
L 451.302353 138.24 
L 449.770588 138.24 
L 449.770588 138.408421 
L 449.770588 135.096637 
L 449.004706 135.096637 
L 449.004706 135.17617 
L 449.004706 132.48 
L 448.238824 132.48 
L 448.238824 132.555564 
L 448.238824 122.791927 
L 447.472941 122.791927 
L 447.472941 122.851765 
L 447.472941 122.133923 
L 445.175294 122.192768 
L 445.175294 122.311111 
L 442.877647 122.311111 
L 442.877647 122.490279 
L 442.877647 121.762388 
L 441.345882 121.762388 
L 441.345882 121.880449 
L 440.58 121.880449 
L 440.58 121.939812 
L 440.58 119.728302 
L 439.048235 119.784045 
L 439.048235 119.84 
L 438.282353 119.84 
L 438.282353 119.896167 
L 438.282353 119.149506 
L 435.984706 119.259847 
L 435.984706 119.315335 
L 435.984706 116.283931 
L 433.687059 116.283931 
L 433.687059 116.435349 
L 432.155294 116.435349 
L 432.155294 116.537276 
L 432.155294 115.765146 
L 431.389412 115.765146 
L 431.389412 115.815 
L 431.389412 113.476149 
L 430.623529 113.476149 
L 430.623529 113.52189 
L 430.623529 112.734675 
L 426.794118 112.823762 
L 426.794118 112.160958 
L 425.262353 112.2048 
L 425.262353 112.248818 
L 425.262353 111.444819 
L 422.964706 111.530323 
L 422.964706 111.573333 
L 422.198824 111.573333 
L 422.198824 111.616518 
L 422.198824 110.803083 
L 420.667059 110.844878 
L 420.667059 110.886843 
L 420.667059 108.417049 
L 419.135294 108.454374 
L 419.135294 108.491852 
L 419.135294 107.658557 
L 416.071765 107.766971 
L 416.071765 107.80341 
L 412.242353 107.91364 
L 412.242353 107.987899 
L 412.242353 107.136 
L 409.178824 107.24339 
L 409.178824 107.27949 
L 404.583529 107.388718 
L 404.583529 107.499355 
L 402.285882 107.573909 
L 402.285882 107.611429 
L 402.285882 106.732842 
L 399.222353 106.840873 
L 399.222353 106.877199 
L 396.158824 106.987137 
L 396.158824 107.024106 
L 390.031765 107.098537 
L 390.031765 107.325843 
L 390.031765 106.412973 
L 389.265882 106.412973 
L 389.265882 106.449481 
L 389.265882 105.530498 
L 387.734118 105.530498 
L 387.734118 105.6 
L 387.734118 104.672802 
L 384.670588 104.672802 
L 384.670588 104.805517 
L 381.607059 104.872794 
L 381.607059 104.940696 
L 381.607059 103.992558 
L 379.309412 104.056822 
L 379.309412 104.08918 
L 379.309412 103.130141 
L 376.245882 103.190943 
L 376.245882 103.252322 
L 373.182353 103.345489 
L 373.182353 103.376842 
L 370.118824 103.471807 
L 370.118824 103.503768 
L 368.587059 103.535884 
L 368.587059 103.568155 
L 368.587059 102.572847 
L 365.523529 102.663529 
L 365.523529 102.694054 
L 361.694118 102.755556 
L 361.694118 102.848955 
L 358.630588 102.943759 
L 358.630588 102.975678 
L 357.864706 102.975678 
L 357.864706 103.007758 
L 357.864706 101.973333 
L 354.801176 102.062901 
L 354.801176 102.093061 
L 351.737647 102.184473 
L 351.737647 102.215258 
L 348.674118 102.308571 
L 348.674118 102.34 
L 348.674118 101.268721 
L 345.610588 101.355789 
L 345.610588 101.385119 
L 341.781176 101.474043 
L 341.781176 101.534118 
L 338.717647 101.625445 
L 338.717647 101.656216 
L 334.888235 101.749537 
L 334.888235 101.812603 
L 334.122353 101.812603 
L 334.122353 101.844396 
L 334.122353 100.712727 
L 331.058824 100.8 
L 331.058824 100.829415 
L 327.995294 100.918652 
L 327.995294 100.948732 
L 324.931765 101.04 
L 324.931765 101.070769 
L 321.868235 101.164138 
L 321.868235 101.19562 
L 321.102353 101.19562 
L 321.102353 101.227283 
L 321.102353 100.034783 
L 318.038824 100.091895 
L 318.038824 100.149677 
L 317.272941 100.149677 
L 317.272941 100.178824 
L 317.272941 98.962124 
L 313.443529 99.066269 
L 313.443529 99.092695 
L 309.614118 99.2 
L 309.614118 99.227234 
L 305.784706 99.337846 
L 305.784706 99.365926 
L 302.721176 99.451215 
L 302.721176 99.48 
L 299.657647 99.567445 
L 299.657647 99.596962 
L 298.891765 99.596962 
L 298.891765 99.626667 
L 298.891765 98.311338 
L 295.828235 98.389196 
L 295.828235 98.415484 
L 295.828235 97.074951 
L 291.998824 97.16459 
L 291.998824 97.187368 
L 288.169412 97.28 
L 288.169412 97.303545 
L 287.403529 97.303545 
L 287.403529 97.327248 
L 287.403529 95.928889 
L 282.808235 96.026301 
L 282.808235 96.046186 
L 278.212941 96.147692 
L 278.212941 96.168421 
L 273.617647 96.274286 
L 273.617647 96.295914 
L 269.022353 96.406423 
L 269.022353 96.429011 
L 265.192941 96.521041 
L 265.192941 96.544478 
L 261.363529 96.615849 
L 261.363529 96.664335 
L 257.534118 96.763552 
L 257.534118 96.788837 
L 253.704706 96.891969 
L 253.704706 96.918261 
L 249.875294 97.025542 
L 249.875294 97.052903 
L 246.811765 97.136327 
L 246.811765 97.16459 
L 243.748235 97.250788 
L 243.748235 97.28 
L 240.684706 97.369114 
L 240.684706 97.399322 
L 237.621176 97.491502 
L 237.621176 97.522759 
L 234.557647 97.618166 
L 234.557647 97.650526 
L 231.494118 97.749333 
L 231.494118 97.782857 
L 228.430588 97.885249 
L 228.430588 97.92 
L 225.367059 98.026175 
L 225.367059 98.062222 
L 222.303529 98.135327 
L 222.303529 98.209811 
L 220.005882 98.285714 
L 220.005882 98.324211 
L 217.708235 98.324211 
L 217.708235 98.441942 
L 215.410588 98.522353 
L 215.410588 98.563153 
L 213.112941 98.64597 
L 213.112941 98.688 
L 210.815294 98.773333 
L 210.815294 98.81665 
L 208.517647 98.860408 
L 208.517647 98.949278 
L 207.751765 98.949278 
L 207.751765 98.994404 
L 207.751765 96.84 
L 204.688235 96.909474 
L 204.688235 96.980426 
L 201.624706 97.052903 
L 201.624706 97.126957 
L 199.327059 97.202637 
L 199.327059 97.241105 
L 197.029412 97.31933 
L 197.029412 97.359101 
L 194.731765 97.44 
L 194.731765 97.481143 
L 192.434118 97.564855 
L 192.434118 97.607442 
L 190.136471 97.650526 
L 190.136471 97.738225 
L 189.370588 97.738225 
L 189.370588 97.782857 
L 189.370588 95.298683 
L 186.307059 95.36 
L 186.307059 95.422822 
L 183.243529 95.52 
L 183.243529 95.553208 
L 180.18 95.655385 
L 180.18 95.690323 
L 177.116471 95.797895 
L 177.116471 95.834702 
L 173.287059 95.909799 
L 173.287059 96.026301 
L 170.989412 96.106667 
L 170.989412 96.147692 
L 168.691765 96.189296 
L 168.691765 96.274286 
L 166.394118 96.361739 
L 166.394118 96.406423 
L 163.330588 96.497778 
L 163.330588 96.59188 
L 161.032941 96.59188 
L 161.032941 96.738462 
L 158.735294 96.84 
L 158.735294 96.891969 
L 156.437647 96.9984 
L 156.437647 97.052903 
L 154.905882 97.108293 
L 154.905882 97.16459 
L 153.374118 97.221818 
L 153.374118 97.28 
L 151.842353 97.28 
L 151.842353 97.399322 
L 150.310588 97.399322 
L 150.310588 97.522759 
L 148.778824 97.586087 
L 148.778824 97.650526 
L 147.247059 97.716106 
L 147.247059 97.782857 
L 144.949412 97.850811 
L 144.949412 97.990459 
L 143.417647 98.062222 
L 143.417647 98.135327 
L 141.12 98.209811 
L 141.12 98.363077 
L 139.588235 98.441942 
L 139.588235 98.522353 
L 138.056471 98.522353 
L 138.056471 98.688 
L 136.524706 98.773333 
L 136.524706 98.860408 
L 134.992941 98.949278 
L 134.992941 99.04 
L 133.461176 99.132632 
L 133.461176 99.227234 
L 131.929412 99.323871 
L 131.929412 99.422609 
L 130.397647 99.523516 
L 130.397647 99.626667 
L 128.865882 99.732135 
L 128.865882 99.84 
L 127.334118 99.950345 
L 127.334118 100.063256 
L 125.802353 100.063256 
L 125.802353 100.297143 
L 125.036471 100.297143 
L 125.036471 100.418313 
L 124.270588 100.418313 
L 124.270588 100.542439 
L 123.504706 100.542439 
L 123.504706 100.66963 
L 122.738824 100.66963 
L 122.738824 100.8 
L 121.972941 100.8 
L 121.972941 100.933671 
L 121.207059 100.933671 
L 121.207059 101.070769 
L 120.441176 101.070769 
L 120.441176 101.211429 
L 118.909412 101.211429 
L 118.909412 101.504 
L 118.143529 101.504 
L 118.143529 101.656216 
L 117.377647 101.656216 
L 117.377647 101.812603 
L 116.611765 101.812603 
L 116.611765 101.973333 
L 115.845882 101.973333 
L 115.845882 102.138592 
L 115.08 102.138592 
L 115.08 102.308571 
L 113.548235 102.308571 
L 113.548235 102.663529 
L 112.782353 102.663529 
L 112.782353 102.848955 
L 111.250588 102.848955 
L 111.250588 103.236923 
L 110.484706 103.236923 
L 110.484706 103.44 
L 109.718824 103.44 
L 109.718824 103.649524 
L 108.952941 103.649524 
L 108.952941 103.865806 
L 108.187059 103.865806 
L 108.187059 104.08918 
L 107.421176 104.08918 
L 107.421176 104.32 
L 106.655294 104.32 
L 106.655294 104.558644 
L 105.889412 104.558644 
L 105.889412 104.805517 
L 105.123529 104.805517 
L 105.123529 105.061053 
L 104.357647 105.061053 
L 104.357647 105.325714 
L 102.825882 105.325714 
L 102.825882 105.884444 
L 102.06 105.884444 
L 102.06 106.179623 
L 102.06 98.363077 
L 101.294118 98.363077 
L 101.294118 98.522353 
L 100.528235 98.522353 
L 100.528235 98.688 
L 98.996471 98.688 
L 98.996471 99.04 
L 98.230588 99.04 
L 98.230588 99.227234 
L 97.464706 99.227234 
L 97.464706 99.422609 
L 96.698824 99.422609 
L 96.698824 99.626667 
L 95.167059 99.626667 
L 95.167059 100.063256 
L 94.401176 100.063256 
L 94.401176 100.297143 
L 92.869412 100.297143 
L 92.869412 100.8 
L 92.103529 100.8 
L 92.103529 101.070769 
L 90.571765 101.070769 
L 90.571765 101.656216 
L 89.04 101.656216 
L 89.04 102.308571 
L 88.274118 102.308571 
L 88.274118 102.663529 
L 87.508235 102.663529 
L 87.508235 103.04 
L 86.742353 103.04 
L 86.742353 103.44 
L 85.976471 103.44 
L 85.976471 103.865806 
L 85.210588 103.865806 
L 85.210588 104.32 
L 84.444706 104.32 
L 84.444706 104.805517 
L 83.678824 104.805517 
L 83.678824 105.325714 
L 82.912941 105.325714 
L 82.912941 105.884444 
L 82.147059 105.884444 
L 82.147059 106.486154 
L 81.381176 106.486154 
L 81.381176 107.136 
L 81.381176 90.24 
L 63 90.24 
L 63 90.24 
" clip-path="url(#p40411bb7d2)" style="fill: none; stroke: #000080; stroke-width: 1.5; stroke-linecap: square"/>
   </g>
   <g id="line2d_19">
    <path d="M 453.6 407.04 
L 453.6 403.176585 
L 451.302353 403.176585 
L 451.302353 403.654351 
L 451.302353 398.968662 
L 449.004706 398.968662 
L 449.004706 399.461053 
L 449.004706 374.310175 
L 446.707059 374.310175 
L 446.707059 374.865 
L 446.707059 368.08918 
L 444.409412 368.08918 
L 444.409412 368.659713 
L 444.409412 329.563238 
L 442.111765 329.563238 
L 442.111765 330.189738 
L 442.111765 324.780162 
L 439.814118 324.780162 
L 439.814118 325.414054 
L 439.814118 323.367869 
L 437.516471 323.367869 
L 437.516471 324.006575 
L 437.516471 310.730323 
L 435.218824 310.730323 
L 435.218824 311.378824 
L 435.218824 308.374925 
L 432.921176 308.374925 
L 432.921176 309.028024 
L 432.921176 298.10877 
L 430.623529 298.10877 
L 430.623529 298.766582 
L 430.623529 285.084444 
L 428.325882 285.084444 
L 428.325882 285.742703 
L 428.325882 276.155493 
L 426.028235 276.155493 
L 426.028235 276.812438 
L 426.028235 264.538885 
L 423.730588 264.538885 
L 423.730588 265.189254 
L 423.730588 251.550236 
L 421.432941 251.550236 
L 421.432941 252.187826 
L 421.432941 249.0624 
L 419.135294 249.0624 
L 419.135294 249.700241 
L 419.135294 240.97195 
L 416.837647 240.97195 
L 416.837647 241.6 
L 416.837647 239.322353 
L 414.54 239.322353 
L 414.54 239.951392 
L 414.54 238.795932 
L 412.242353 238.795932 
L 412.242353 239.428085 
L 412.242353 219.467397 
L 409.944706 219.467397 
L 409.944706 220.060183 
L 409.944706 201.506341 
L 407.647059 201.506341 
L 407.647059 202.051765 
L 407.647059 187.716923 
L 405.349412 187.716923 
L 405.349412 188.219381 
L 405.349412 184.84 
L 403.051765 184.84 
L 403.051765 185.335288 
L 400.754118 185.335288 
L 400.754118 185.835789 
L 398.456471 185.835789 
L 398.456471 186.341587 
L 398.456471 182.851765 
L 396.158824 182.851765 
L 396.158824 183.349677 
L 396.158824 176.112527 
L 393.861176 176.112527 
L 393.861176 176.586961 
L 393.861176 172.832179 
L 391.563529 172.832179 
L 391.563529 163.488555 
L 389.265882 163.488555 
L 389.265882 163.914419 
L 389.265882 161.875088 
L 386.968235 161.875088 
L 386.968235 162.296471 
L 384.670588 162.296471 
L 384.670588 162.72284 
L 382.372941 162.72284 
L 382.372941 163.154286 
L 382.372941 161.061557 
L 380.075294 161.061557 
L 380.075294 161.488193 
L 380.075294 150.582857 
L 377.777647 150.582857 
L 377.777647 150.96 
L 375.48 150.96 
L 375.48 151.341887 
L 370.884706 151.341887 
L 370.884706 152.120255 
L 370.884706 145.097143 
L 368.587059 145.097143 
L 368.587059 145.455686 
L 368.587059 138.112 
L 366.289412 138.112 
L 366.289412 138.433289 
L 363.991765 138.433289 
L 363.991765 138.758919 
L 361.694118 138.758919 
L 361.694118 139.08898 
L 361.694118 131.306667 
L 359.396471 131.306667 
L 359.396471 131.593846 
L 359.396471 114.905693 
L 357.098824 114.905693 
L 357.098824 115.087059 
L 357.098824 112.142222 
L 345.610588 112.142222 
L 345.610588 112.984615 
L 343.312941 112.984615 
L 343.312941 113.16093 
L 338.717647 113.16093 
L 338.717647 113.52189 
L 336.42 113.52189 
L 336.42 113.706667 
L 334.122353 113.706667 
L 334.122353 113.8944 
L 331.824706 113.8944 
L 331.824706 114.085161 
L 329.527059 114.085161 
L 329.527059 114.279024 
L 327.229412 114.279024 
L 327.229412 114.476066 
L 324.931765 114.476066 
L 324.931765 114.676364 
L 324.931765 111.36 
L 322.634118 111.36 
L 322.634118 111.537479 
L 320.336471 111.537479 
L 320.336471 111.717966 
L 318.038824 111.717966 
L 318.038824 111.901538 
L 315.741176 111.901538 
L 315.741176 112.088276 
L 315.741176 108.605217 
L 313.443529 108.605217 
L 313.443529 108.766316 
L 311.145882 108.766316 
L 311.145882 108.930265 
L 308.848235 108.930265 
L 308.848235 109.097143 
L 306.550588 109.097143 
L 306.550588 109.267027 
L 304.252941 109.267027 
L 304.252941 109.44 
L 304.252941 101.973333 
L 299.657647 102.082991 
L 299.657647 102.194717 
L 297.36 102.194717 
L 297.36 102.308571 
L 295.062353 102.308571 
L 295.062353 102.424615 
L 295.062353 94.381176 
L 288.169412 94.464 
L 288.169412 94.506667 
L 281.276471 94.594639 
L 281.276471 94.64 
L 278.978824 94.64 
L 278.978824 94.686316 
L 278.978824 90.24 
L 63 90.24 
L 63 90.24 
" clip-path="url(#p40411bb7d2)" style="fill: none; stroke: #40e0d0; stroke-width: 1.5; stroke-linecap: square"/>
   </g>
   <g id="patch_3">
    <path d="M 63 512.64 
L 63 69.12 
" style="fill: none; stroke: #000000; stroke-width: 0.8; stroke-linejoin: miter; stroke-linecap: square"/>
   </g>
   <g id="patch_4">
    <path d="M 453.6 512.64 
L 453.6 69.12 
" style="fill: none; stroke: #000000; stroke-width: 0.8; stroke-linejoin: miter; stroke-linecap: square"/>
   </g>
   <g id="patch_5">
    <path d="M 63 512.64 
L 453.6 512.64 
" style="fill: none; stroke: #000000; stroke-width: 0.8; stroke-linejoin: miter; stroke-linecap: square"/>
   </g>
   <g id="patch_6">
    <path d="M 63 69.12 
L 453.6 69.12 
" style="fill: none; stroke: #000000; stroke-width: 0.8; stroke-linejoin: miter; stroke-linecap: square"/>
   </g>
   <g id="text_15">
    <!-- f1=0.2 -->
    <g transform="translate(414.54 456.795647) scale(0.1 -0.1)">
     <defs>
      <path id="DejaVuSans-66" d="M 2375 4863 
L 2375 4384 
L 1825 4384 
Q 1516 4384 1395 4259 
Q 1275 4134 1275 3809 
L 1275 3500 
L 2222 3500 
L 2222 3053 
L 1275 3053 
L 1275 0 
L 697 0 
L 697 3053 
L 147 3053 
L 147 3500 
L 697 3500 
L 697 3744 
Q 697 4328 969 4595 
Q 1241 4863 1831 4863 
L 2375 4863 
z
" transform="scale(0.015625)"/>
      <path id="DejaVuSans-3d" d="M 678 2906 
L 4684 2906 
L 4684 2381 
L 678 2381 
L 678 2906 
z
M 678 1631 
L 4684 1631 
L 4684 1100 
L 678 1100 
L 678 1631 
z
" transform="scale(0.015625)"/>
     </defs>
     <use xlink:href="#DejaVuSans-66"/>
     <use xlink:href="#DejaVuSans-31" x="35.205078"/>
     <use xlink:href="#DejaVuSans-3d" x="98.828125"/>
     <use xlink:href="#DejaVuSans-30" x="182.617188"/>
     <use xlink:href="#DejaVuSans-2e" x="246.240234"/>
     <use xlink:href="#DejaVuSans-32" x="278.027344"/>
    </g>
   </g>
   <g id="text_16">
    <!-- f1=0.4 -->
    <g transform="translate(414.54 396.218697) scale(0.1 -0.1)">
     <use xlink:href="#DejaVuSans-66"/>
     <use xlink:href="#DejaVuSans-31" x="35.205078"/>
     <use xlink:href="#DejaVuSans-3d" x="98.828125"/>
     <use xlink:href="#DejaVuSans-30" x="182.617188"/>
     <use xlink:href="#DejaVuSans-2e" x="246.240234"/>
     <use xlink:href="#DejaVuSans-34" x="278.027344"/>
    </g>
   </g>
   <g id="text_17">
    <!-- f1=0.6 -->
    <g transform="translate(414.54 316.075032) scale(0.1 -0.1)">
     <use xlink:href="#DejaVuSans-66"/>
     <use xlink:href="#DejaVuSans-31" x="35.205078"/>
     <use xlink:href="#DejaVuSans-3d" x="98.828125"/>
     <use xlink:href="#DejaVuSans-30" x="182.617188"/>
     <use xlink:href="#DejaVuSans-2e" x="246.240234"/>
     <use xlink:href="#DejaVuSans-36" x="278.027344"/>
    </g>
   </g>
   <g id="text_18">
    <!-- f1=0.8 -->
    <g transform="translate(414.54 205.058415) scale(0.1 -0.1)">
     <use xlink:href="#DejaVuSans-66"/>
     <use xlink:href="#DejaVuSans-31" x="35.205078"/>
     <use xlink:href="#DejaVuSans-3d" x="98.828125"/>
     <use xlink:href="#DejaVuSans-30" x="182.617188"/>
     <use xlink:href="#DejaVuSans-2e" x="246.240234"/>
     <use xlink:href="#DejaVuSans-38" x="278.027344"/>
    </g>
   </g>
   <g id="text_19">
    <!-- Precision-Recall curve -->
    <g transform="translate(192.748125 63.12) scale(0.12 -0.12)">
     <defs>
      <path id="DejaVuSans-2d" d="M 313 2009 
L 1997 2009 
L 1997 1497 
L 313 1497 
L 313 2009 
z
" transform="scale(0.015625)"/>
      <path id="DejaVuSans-20" transform="scale(0.015625)"/>
      <path id="DejaVuSans-75" d="M 544 1381 
L 544 3500 
L 1119 3500 
L 1119 1403 
Q 1119 906 1312 657 
Q 1506 409 1894 409 
Q 2359 409 2629 706 
Q 2900 1003 2900 1516 
L 2900 3500 
L 3475 3500 
L 3475 0 
L 2900 0 
L 2900 538 
Q 2691 219 2414 64 
Q 2138 -91 1772 -91 
Q 1169 -91 856 284 
Q 544 659 544 1381 
z
M 1991 3584 
L 1991 3584 
z
" transform="scale(0.015625)"/>
      <path id="DejaVuSans-76" d="M 191 3500 
L 800 3500 
L 1894 563 
L 2988 3500 
L 3597 3500 
L 2284 0 
L 1503 0 
L 191 3500 
z
" transform="scale(0.015625)"/>
     </defs>
     <use xlink:href="#DejaVuSans-50"/>
     <use xlink:href="#DejaVuSans-72" x="58.552734"/>
     <use xlink:href="#DejaVuSans-65" x="97.416016"/>
     <use xlink:href="#DejaVuSans-63" x="158.939453"/>
     <use xlink:href="#DejaVuSans-69" x="213.919922"/>
     <use xlink:href="#DejaVuSans-73" x="241.703125"/>
     <use xlink:href="#DejaVuSans-69" x="293.802734"/>
     <use xlink:href="#DejaVuSans-6f" x="321.585938"/>
     <use xlink:href="#DejaVuSans-6e" x="382.767578"/>
     <use xlink:href="#DejaVuSans-2d" x="446.146484"/>
     <use xlink:href="#DejaVuSans-52" x="482.230469"/>
     <use xlink:href="#DejaVuSans-65" x="547.212891"/>
     <use xlink:href="#DejaVuSans-63" x="608.736328"/>
     <use xlink:href="#DejaVuSans-61" x="663.716797"/>
     <use xlink:href="#DejaVuSans-6c" x="724.996094"/>
     <use xlink:href="#DejaVuSans-6c" x="752.779297"/>
     <use xlink:href="#DejaVuSans-20" x="780.5625"/>
     <use xlink:href="#DejaVuSans-63" x="812.349609"/>
     <use xlink:href="#DejaVuSans-75" x="867.330078"/>
     <use xlink:href="#DejaVuSans-72" x="930.708984"/>
     <use xlink:href="#DejaVuSans-76" x="971.822266"/>
     <use xlink:href="#DejaVuSans-65" x="1031.001953"/>
    </g>
   </g>
   <g id="legend_1">
    <g id="patch_7">
     <path d="M 70 321.73625 
L 313.614063 321.73625 
Q 315.614063 321.73625 315.614063 319.73625 
L 315.614063 262.02375 
Q 315.614063 260.02375 313.614063 260.02375 
L 70 260.02375 
Q 68 260.02375 68 262.02375 
L 68 319.73625 
Q 68 321.73625 70 321.73625 
z
" style="fill: #ffffff; opacity: 0.8; stroke: #cccccc; stroke-linejoin: miter"/>
    </g>
    <g id="line2d_20">
     <path d="M 72 268.122187 
L 82 268.122187 
L 82 268.122187 
L 92 268.122187 
L 92 268.122187 
" style="fill: none; stroke: #ffd700; stroke-width: 1.5; stroke-linecap: square"/>
    </g>
    <g id="text_20">
     <!-- Micro-average precision-recall (AP = 0.96) -->
     <g transform="translate(100 271.622187) scale(0.1 -0.1)">
      <defs>
       <path id="DejaVuSans-4d" d="M 628 4666 
L 1569 4666 
L 2759 1491 
L 3956 4666 
L 4897 4666 
L 4897 0 
L 4281 0 
L 4281 4097 
L 3078 897 
L 2444 897 
L 1241 4097 
L 1241 0 
L 628 0 
L 628 4666 
z
" transform="scale(0.015625)"/>
       <path id="DejaVuSans-67" d="M 2906 1791 
Q 2906 2416 2648 2759 
Q 2391 3103 1925 3103 
Q 1463 3103 1205 2759 
Q 947 2416 947 1791 
Q 947 1169 1205 825 
Q 1463 481 1925 481 
Q 2391 481 2648 825 
Q 2906 1169 2906 1791 
z
M 3481 434 
Q 3481 -459 3084 -895 
Q 2688 -1331 1869 -1331 
Q 1566 -1331 1297 -1286 
Q 1028 -1241 775 -1147 
L 775 -588 
Q 1028 -725 1275 -790 
Q 1522 -856 1778 -856 
Q 2344 -856 2625 -561 
Q 2906 -266 2906 331 
L 2906 616 
Q 2728 306 2450 153 
Q 2172 0 1784 0 
Q 1141 0 747 490 
Q 353 981 353 1791 
Q 353 2603 747 3093 
Q 1141 3584 1784 3584 
Q 2172 3584 2450 3431 
Q 2728 3278 2906 2969 
L 2906 3500 
L 3481 3500 
L 3481 434 
z
" transform="scale(0.015625)"/>
       <path id="DejaVuSans-70" d="M 1159 525 
L 1159 -1331 
L 581 -1331 
L 581 3500 
L 1159 3500 
L 1159 2969 
Q 1341 3281 1617 3432 
Q 1894 3584 2278 3584 
Q 2916 3584 3314 3078 
Q 3713 2572 3713 1747 
Q 3713 922 3314 415 
Q 2916 -91 2278 -91 
Q 1894 -91 1617 61 
Q 1341 213 1159 525 
z
M 3116 1747 
Q 3116 2381 2855 2742 
Q 2594 3103 2138 3103 
Q 1681 3103 1420 2742 
Q 1159 2381 1159 1747 
Q 1159 1113 1420 752 
Q 1681 391 2138 391 
Q 2594 391 2855 752 
Q 3116 1113 3116 1747 
z
" transform="scale(0.015625)"/>
       <path id="DejaVuSans-28" d="M 1984 4856 
Q 1566 4138 1362 3434 
Q 1159 2731 1159 2009 
Q 1159 1288 1364 580 
Q 1569 -128 1984 -844 
L 1484 -844 
Q 1016 -109 783 600 
Q 550 1309 550 2009 
Q 550 2706 781 3412 
Q 1013 4119 1484 4856 
L 1984 4856 
z
" transform="scale(0.015625)"/>
       <path id="DejaVuSans-41" d="M 2188 4044 
L 1331 1722 
L 3047 1722 
L 2188 4044 
z
M 1831 4666 
L 2547 4666 
L 4325 0 
L 3669 0 
L 3244 1197 
L 1141 1197 
L 716 0 
L 50 0 
L 1831 4666 
z
" transform="scale(0.015625)"/>
       <path id="DejaVuSans-39" d="M 703 97 
L 703 672 
Q 941 559 1184 500 
Q 1428 441 1663 441 
Q 2288 441 2617 861 
Q 2947 1281 2994 2138 
Q 2813 1869 2534 1725 
Q 2256 1581 1919 1581 
Q 1219 1581 811 2004 
Q 403 2428 403 3163 
Q 403 3881 828 4315 
Q 1253 4750 1959 4750 
Q 2769 4750 3195 4129 
Q 3622 3509 3622 2328 
Q 3622 1225 3098 567 
Q 2575 -91 1691 -91 
Q 1453 -91 1209 -44 
Q 966 3 703 97 
z
M 1959 2075 
Q 2384 2075 2632 2365 
Q 2881 2656 2881 3163 
Q 2881 3666 2632 3958 
Q 2384 4250 1959 4250 
Q 1534 4250 1286 3958 
Q 1038 3666 1038 3163 
Q 1038 2656 1286 2365 
Q 1534 2075 1959 2075 
z
" transform="scale(0.015625)"/>
       <path id="DejaVuSans-29" d="M 513 4856 
L 1013 4856 
Q 1481 4119 1714 3412 
Q 1947 2706 1947 2009 
Q 1947 1309 1714 600 
Q 1481 -109 1013 -844 
L 513 -844 
Q 928 -128 1133 580 
Q 1338 1288 1338 2009 
Q 1338 2731 1133 3434 
Q 928 4138 513 4856 
z
" transform="scale(0.015625)"/>
      </defs>
      <use xlink:href="#DejaVuSans-4d"/>
      <use xlink:href="#DejaVuSans-69" x="86.279297"/>
      <use xlink:href="#DejaVuSans-63" x="114.0625"/>
      <use xlink:href="#DejaVuSans-72" x="169.042969"/>
      <use xlink:href="#DejaVuSans-6f" x="207.90625"/>
      <use xlink:href="#DejaVuSans-2d" x="270.962891"/>
      <use xlink:href="#DejaVuSans-61" x="307.046875"/>
      <use xlink:href="#DejaVuSans-76" x="368.326172"/>
      <use xlink:href="#DejaVuSans-65" x="427.505859"/>
      <use xlink:href="#DejaVuSans-72" x="489.029297"/>
      <use xlink:href="#DejaVuSans-61" x="530.142578"/>
      <use xlink:href="#DejaVuSans-67" x="591.421875"/>
      <use xlink:href="#DejaVuSans-65" x="654.898438"/>
      <use xlink:href="#DejaVuSans-20" x="716.421875"/>
      <use xlink:href="#DejaVuSans-70" x="748.208984"/>
      <use xlink:href="#DejaVuSans-72" x="811.685547"/>
      <use xlink:href="#DejaVuSans-65" x="850.548828"/>
      <use xlink:href="#DejaVuSans-63" x="912.072266"/>
      <use xlink:href="#DejaVuSans-69" x="967.052734"/>
      <use xlink:href="#DejaVuSans-73" x="994.835938"/>
      <use xlink:href="#DejaVuSans-69" x="1046.935547"/>
      <use xlink:href="#DejaVuSans-6f" x="1074.71875"/>
      <use xlink:href="#DejaVuSans-6e" x="1135.900391"/>
      <use xlink:href="#DejaVuSans-2d" x="1199.279297"/>
      <use xlink:href="#DejaVuSans-72" x="1235.363281"/>
      <use xlink:href="#DejaVuSans-65" x="1274.226562"/>
      <use xlink:href="#DejaVuSans-63" x="1335.75"/>
      <use xlink:href="#DejaVuSans-61" x="1390.730469"/>
      <use xlink:href="#DejaVuSans-6c" x="1452.009766"/>
      <use xlink:href="#DejaVuSans-6c" x="1479.792969"/>
      <use xlink:href="#DejaVuSans-20" x="1507.576172"/>
      <use xlink:href="#DejaVuSans-28" x="1539.363281"/>
      <use xlink:href="#DejaVuSans-41" x="1578.376953"/>
      <use xlink:href="#DejaVuSans-50" x="1646.785156"/>
      <use xlink:href="#DejaVuSans-20" x="1707.087891"/>
      <use xlink:href="#DejaVuSans-3d" x="1738.875"/>
      <use xlink:href="#DejaVuSans-20" x="1822.664062"/>
      <use xlink:href="#DejaVuSans-30" x="1854.451172"/>
      <use xlink:href="#DejaVuSans-2e" x="1918.074219"/>
      <use xlink:href="#DejaVuSans-39" x="1949.861328"/>
      <use xlink:href="#DejaVuSans-36" x="2013.484375"/>
      <use xlink:href="#DejaVuSans-29" x="2077.107422"/>
     </g>
    </g>
    <g id="line2d_21">
     <path d="M 72 282.800313 
L 82 282.800313 
L 82 282.800313 
L 92 282.800313 
L 92 282.800313 
" style="fill: none; stroke: #000080; stroke-width: 1.5; stroke-linecap: square"/>
    </g>
    <g id="text_21">
     <!-- Precision-recall for class 0 (AP = 0.97) -->
     <g transform="translate(100 286.300313) scale(0.1 -0.1)">
      <defs>
       <path id="DejaVuSans-37" d="M 525 4666 
L 3525 4666 
L 3525 4397 
L 1831 0 
L 1172 0 
L 2766 4134 
L 525 4134 
L 525 4666 
z
" transform="scale(0.015625)"/>
      </defs>
      <use xlink:href="#DejaVuSans-50"/>
      <use xlink:href="#DejaVuSans-72" x="58.552734"/>
      <use xlink:href="#DejaVuSans-65" x="97.416016"/>
      <use xlink:href="#DejaVuSans-63" x="158.939453"/>
      <use xlink:href="#DejaVuSans-69" x="213.919922"/>
      <use xlink:href="#DejaVuSans-73" x="241.703125"/>
      <use xlink:href="#DejaVuSans-69" x="293.802734"/>
      <use xlink:href="#DejaVuSans-6f" x="321.585938"/>
      <use xlink:href="#DejaVuSans-6e" x="382.767578"/>
      <use xlink:href="#DejaVuSans-2d" x="446.146484"/>
      <use xlink:href="#DejaVuSans-72" x="482.230469"/>
      <use xlink:href="#DejaVuSans-65" x="521.09375"/>
      <use xlink:href="#DejaVuSans-63" x="582.617188"/>
      <use xlink:href="#DejaVuSans-61" x="637.597656"/>
      <use xlink:href="#DejaVuSans-6c" x="698.876953"/>
      <use xlink:href="#DejaVuSans-6c" x="726.660156"/>
      <use xlink:href="#DejaVuSans-20" x="754.443359"/>
      <use xlink:href="#DejaVuSans-66" x="786.230469"/>
      <use xlink:href="#DejaVuSans-6f" x="821.435547"/>
      <use xlink:href="#DejaVuSans-72" x="882.617188"/>
      <use xlink:href="#DejaVuSans-20" x="923.730469"/>
      <use xlink:href="#DejaVuSans-63" x="955.517578"/>
      <use xlink:href="#DejaVuSans-6c" x="1010.498047"/>
      <use xlink:href="#DejaVuSans-61" x="1038.28125"/>
      <use xlink:href="#DejaVuSans-73" x="1099.560547"/>
      <use xlink:href="#DejaVuSans-73" x="1151.660156"/>
      <use xlink:href="#DejaVuSans-20" x="1203.759766"/>
      <use xlink:href="#DejaVuSans-30" x="1235.546875"/>
      <use xlink:href="#DejaVuSans-20" x="1299.169922"/>
      <use xlink:href="#DejaVuSans-28" x="1330.957031"/>
      <use xlink:href="#DejaVuSans-41" x="1369.970703"/>
      <use xlink:href="#DejaVuSans-50" x="1438.378906"/>
      <use xlink:href="#DejaVuSans-20" x="1498.681641"/>
      <use xlink:href="#DejaVuSans-3d" x="1530.46875"/>
      <use xlink:href="#DejaVuSans-20" x="1614.257812"/>
      <use xlink:href="#DejaVuSans-30" x="1646.044922"/>
      <use xlink:href="#DejaVuSans-2e" x="1709.667969"/>
      <use xlink:href="#DejaVuSans-39" x="1741.455078"/>
      <use xlink:href="#DejaVuSans-37" x="1805.078125"/>
      <use xlink:href="#DejaVuSans-29" x="1868.701172"/>
     </g>
    </g>
    <g id="line2d_22">
     <path d="M 72 297.478437 
L 82 297.478437 
L 82 297.478437 
L 92 297.478437 
L 92 297.478437 
" style="fill: none; stroke: #40e0d0; stroke-width: 1.5; stroke-linecap: square"/>
    </g>
    <g id="text_22">
     <!-- Precision-recall for class 1 (AP = 0.91) -->
     <g transform="translate(100 300.978437) scale(0.1 -0.1)">
      <use xlink:href="#DejaVuSans-50"/>
      <use xlink:href="#DejaVuSans-72" x="58.552734"/>
      <use xlink:href="#DejaVuSans-65" x="97.416016"/>
      <use xlink:href="#DejaVuSans-63" x="158.939453"/>
      <use xlink:href="#DejaVuSans-69" x="213.919922"/>
      <use xlink:href="#DejaVuSans-73" x="241.703125"/>
      <use xlink:href="#DejaVuSans-69" x="293.802734"/>
      <use xlink:href="#DejaVuSans-6f" x="321.585938"/>
      <use xlink:href="#DejaVuSans-6e" x="382.767578"/>
      <use xlink:href="#DejaVuSans-2d" x="446.146484"/>
      <use xlink:href="#DejaVuSans-72" x="482.230469"/>
      <use xlink:href="#DejaVuSans-65" x="521.09375"/>
      <use xlink:href="#DejaVuSans-63" x="582.617188"/>
      <use xlink:href="#DejaVuSans-61" x="637.597656"/>
      <use xlink:href="#DejaVuSans-6c" x="698.876953"/>
      <use xlink:href="#DejaVuSans-6c" x="726.660156"/>
      <use xlink:href="#DejaVuSans-20" x="754.443359"/>
      <use xlink:href="#DejaVuSans-66" x="786.230469"/>
      <use xlink:href="#DejaVuSans-6f" x="821.435547"/>
      <use xlink:href="#DejaVuSans-72" x="882.617188"/>
      <use xlink:href="#DejaVuSans-20" x="923.730469"/>
      <use xlink:href="#DejaVuSans-63" x="955.517578"/>
      <use xlink:href="#DejaVuSans-6c" x="1010.498047"/>
      <use xlink:href="#DejaVuSans-61" x="1038.28125"/>
      <use xlink:href="#DejaVuSans-73" x="1099.560547"/>
      <use xlink:href="#DejaVuSans-73" x="1151.660156"/>
      <use xlink:href="#DejaVuSans-20" x="1203.759766"/>
      <use xlink:href="#DejaVuSans-31" x="1235.546875"/>
      <use xlink:href="#DejaVuSans-20" x="1299.169922"/>
      <use xlink:href="#DejaVuSans-28" x="1330.957031"/>
      <use xlink:href="#DejaVuSans-41" x="1369.970703"/>
      <use xlink:href="#DejaVuSans-50" x="1438.378906"/>
      <use xlink:href="#DejaVuSans-20" x="1498.681641"/>
      <use xlink:href="#DejaVuSans-3d" x="1530.46875"/>
      <use xlink:href="#DejaVuSans-20" x="1614.257812"/>
      <use xlink:href="#DejaVuSans-30" x="1646.044922"/>
      <use xlink:href="#DejaVuSans-2e" x="1709.667969"/>
      <use xlink:href="#DejaVuSans-39" x="1741.455078"/>
      <use xlink:href="#DejaVuSans-31" x="1805.078125"/>
      <use xlink:href="#DejaVuSans-29" x="1868.701172"/>
     </g>
    </g>
    <g id="line2d_23">
     <path d="M 72 312.156563 
L 82 312.156563 
L 92 312.156563 
" style="fill: none; stroke: #808080; stroke-opacity: 0.2; stroke-width: 1.5; stroke-linecap: square"/>
    </g>
    <g id="text_23">
     <!-- iso-f1 curves -->
     <g transform="translate(100 315.656563) scale(0.1 -0.1)">
      <use xlink:href="#DejaVuSans-69"/>
      <use xlink:href="#DejaVuSans-73" x="27.783203"/>
      <use xlink:href="#DejaVuSans-6f" x="79.882812"/>
      <use xlink:href="#DejaVuSans-2d" x="142.939453"/>
      <use xlink:href="#DejaVuSans-66" x="179.023438"/>
      <use xlink:href="#DejaVuSans-31" x="214.228516"/>
      <use xlink:href="#DejaVuSans-20" x="277.851562"/>
      <use xlink:href="#DejaVuSans-63" x="309.638672"/>
      <use xlink:href="#DejaVuSans-75" x="364.619141"/>
      <use xlink:href="#DejaVuSans-72" x="427.998047"/>
      <use xlink:href="#DejaVuSans-76" x="469.111328"/>
      <use xlink:href="#DejaVuSans-65" x="528.291016"/>
      <use xlink:href="#DejaVuSans-73" x="589.814453"/>
     </g>
    </g>
   </g>
  </g>
 </g>
 <defs>
  <clipPath id="p40411bb7d2">
   <rect x="63" y="69.12" width="390.6" height="443.52"/>
  </clipPath>
 </defs>
</svg>
